<?xml version="1.0" encoding="UTF-8" standalone="no"?>
<!-- Created with Inkscape (http://www.inkscape.org/) -->

<svg
   version="1.1"
   id="svg4354"
   width="316.28601"
   height="212.32172"
   viewBox="0 0 316.28601 212.32172"
   sodipodi:docname="AM_halo_18052.svg"
   inkscape:version="1.2 (dc2aedaf03, 2022-05-15)"
   xmlns:inkscape="http://www.inkscape.org/namespaces/inkscape"
   xmlns:sodipodi="http://sodipodi.sourceforge.net/DTD/sodipodi-0.dtd"
   xmlns="http://www.w3.org/2000/svg"
   xmlns:svg="http://www.w3.org/2000/svg">
  <defs
     id="defs4358">
    <clipPath
       clipPathUnits="userSpaceOnUse"
       id="clipPath4896">
      <path
         d="M 0,0 H 240 V 163.16097 H 0 Z"
         id="path4894" />
    </clipPath>
    <clipPath
       clipPathUnits="userSpaceOnUse"
       id="clipPath5096">
      <path
         d="M -970,-443 H 2000 V 1023 H -970 Z"
         id="path5094" />
    </clipPath>
    <clipPath
       clipPathUnits="userSpaceOnUse"
       id="clipPath5108">
      <path
         d="M -970,-443 H 2000 V 1023 H -970 Z"
         id="path5106" />
    </clipPath>
    <clipPath
       clipPathUnits="userSpaceOnUse"
       id="clipPath5118">
      <path
         d="M 35.00024,29.203365 H 236.99976 V 136.48886 H 35.00024 Z"
         id="path5116" />
    </clipPath>
    <clipPath
       clipPathUnits="userSpaceOnUse"
       id="clipPath5128">
      <path
         d="M 35.00024,29.203365 H 236.99976 V 136.48886 H 35.00024 Z"
         id="path5126" />
    </clipPath>
    <clipPath
       clipPathUnits="userSpaceOnUse"
       id="clipPath5138">
      <path
         d="M 35.00024,29.203365 H 236.99976 V 136.48886 H 35.00024 Z"
         id="path5136" />
    </clipPath>
    <clipPath
       clipPathUnits="userSpaceOnUse"
       id="clipPath5148">
      <path
         d="M 35.00024,29.203365 H 236.99976 V 136.48886 H 35.00024 Z"
         id="path5146" />
    </clipPath>
    <clipPath
       clipPathUnits="userSpaceOnUse"
       id="clipPath5158">
      <path
         d="M 35.00024,29.203365 H 236.99976 V 136.48886 H 35.00024 Z"
         id="path5156" />
    </clipPath>
    <clipPath
       clipPathUnits="userSpaceOnUse"
       id="clipPath5168">
      <path
         d="M 35.00024,29.203365 H 236.99976 V 136.48886 H 35.00024 Z"
         id="path5166" />
    </clipPath>
    <clipPath
       clipPathUnits="userSpaceOnUse"
       id="clipPath5248">
      <path
         d="M 0,0 H 240 V 163.16097 H 0 Z"
         id="path5246" />
    </clipPath>
    <clipPath
       clipPathUnits="userSpaceOnUse"
       id="clipPath5450">
      <path
         d="M -970,-443 H 2000 V 1023 H -970 Z"
         id="path5448" />
    </clipPath>
    <clipPath
       clipPathUnits="userSpaceOnUse"
       id="clipPath5462">
      <path
         d="M -970,-443 H 2000 V 1023 H -970 Z"
         id="path5460" />
    </clipPath>
    <clipPath
       clipPathUnits="userSpaceOnUse"
       id="clipPath5472">
      <path
         d="M 35.00024,29.203365 H 236.99976 V 136.48886 H 35.00024 Z"
         id="path5470" />
    </clipPath>
    <clipPath
       clipPathUnits="userSpaceOnUse"
       id="clipPath5482">
      <path
         d="M 35.00024,29.203365 H 236.99976 V 136.48886 H 35.00024 Z"
         id="path5480" />
    </clipPath>
    <clipPath
       clipPathUnits="userSpaceOnUse"
       id="clipPath5492">
      <path
         d="M 35.00024,29.203365 H 236.99976 V 136.48886 H 35.00024 Z"
         id="path5490" />
    </clipPath>
    <clipPath
       clipPathUnits="userSpaceOnUse"
       id="clipPath5502">
      <path
         d="M 35.00024,29.203365 H 236.99976 V 136.48886 H 35.00024 Z"
         id="path5500" />
    </clipPath>
    <clipPath
       clipPathUnits="userSpaceOnUse"
       id="clipPath5512">
      <path
         d="M 35.00024,29.203365 H 236.99976 V 136.48886 H 35.00024 Z"
         id="path5510" />
    </clipPath>
    <clipPath
       clipPathUnits="userSpaceOnUse"
       id="clipPath5522">
      <path
         d="M 35.00024,29.203365 H 236.99976 V 136.48886 H 35.00024 Z"
         id="path5520" />
    </clipPath>
    <clipPath
       clipPathUnits="userSpaceOnUse"
       id="clipPath5622">
      <path
         d="M 0,0 H 240 V 163.16097 H 0 Z"
         id="path5620" />
    </clipPath>
    <clipPath
       clipPathUnits="userSpaceOnUse"
       id="clipPath5824">
      <path
         d="M -970,-443 H 2000 V 1023 H -970 Z"
         id="path5822" />
    </clipPath>
    <clipPath
       clipPathUnits="userSpaceOnUse"
       id="clipPath5836">
      <path
         d="M -970,-443 H 2000 V 1023 H -970 Z"
         id="path5834" />
    </clipPath>
    <clipPath
       clipPathUnits="userSpaceOnUse"
       id="clipPath5846">
      <path
         d="M 35.00024,29.203365 H 236.99976 V 136.48886 H 35.00024 Z"
         id="path5844" />
    </clipPath>
    <clipPath
       clipPathUnits="userSpaceOnUse"
       id="clipPath5856">
      <path
         d="M 35.00024,29.203365 H 236.99976 V 136.48886 H 35.00024 Z"
         id="path5854" />
    </clipPath>
    <clipPath
       clipPathUnits="userSpaceOnUse"
       id="clipPath5866">
      <path
         d="M 35.00024,29.203365 H 236.99976 V 136.48886 H 35.00024 Z"
         id="path5864" />
    </clipPath>
    <clipPath
       clipPathUnits="userSpaceOnUse"
       id="clipPath5876">
      <path
         d="M 35.00024,29.203365 H 236.99976 V 136.48886 H 35.00024 Z"
         id="path5874" />
    </clipPath>
    <clipPath
       clipPathUnits="userSpaceOnUse"
       id="clipPath5886">
      <path
         d="M 35.00024,29.203365 H 236.99976 V 136.48886 H 35.00024 Z"
         id="path5884" />
    </clipPath>
    <clipPath
       clipPathUnits="userSpaceOnUse"
       id="clipPath5622-3">
      <path
         d="M 0,0 H 240 V 163.16097 H 0 Z"
         id="path5620-6" />
    </clipPath>
    <clipPath
       clipPathUnits="userSpaceOnUse"
       id="clipPath5824-1">
      <path
         d="M -970,-443 H 2000 V 1023 H -970 Z"
         id="path5822-0" />
    </clipPath>
    <clipPath
       clipPathUnits="userSpaceOnUse"
       id="clipPath5836-6">
      <path
         d="M -970,-443 H 2000 V 1023 H -970 Z"
         id="path5834-3" />
    </clipPath>
    <clipPath
       clipPathUnits="userSpaceOnUse"
       id="clipPath5846-2">
      <path
         d="M 35.00024,29.203365 H 236.99976 V 136.48886 H 35.00024 Z"
         id="path5844-0" />
    </clipPath>
    <clipPath
       clipPathUnits="userSpaceOnUse"
       id="clipPath5856-6">
      <path
         d="M 35.00024,29.203365 H 236.99976 V 136.48886 H 35.00024 Z"
         id="path5854-1" />
    </clipPath>
    <clipPath
       clipPathUnits="userSpaceOnUse"
       id="clipPath5866-5">
      <path
         d="M 35.00024,29.203365 H 236.99976 V 136.48886 H 35.00024 Z"
         id="path5864-5" />
    </clipPath>
    <clipPath
       clipPathUnits="userSpaceOnUse"
       id="clipPath5876-4">
      <path
         d="M 35.00024,29.203365 H 236.99976 V 136.48886 H 35.00024 Z"
         id="path5874-7" />
    </clipPath>
    <clipPath
       clipPathUnits="userSpaceOnUse"
       id="clipPath5886-6">
      <path
         d="M 35.00024,29.203365 H 236.99976 V 136.48886 H 35.00024 Z"
         id="path5884-5" />
    </clipPath>
  </defs>
  <sodipodi:namedview
     id="namedview4356"
     pagecolor="#ffffff"
     bordercolor="#111111"
     borderopacity="1"
     inkscape:showpageshadow="0"
     inkscape:pageopacity="0"
     inkscape:pagecheckerboard="1"
     inkscape:deskcolor="#d1d1d1"
     showgrid="false"
     inkscape:zoom="3.1996452"
     inkscape:cx="288.93828"
     inkscape:cy="127.82667"
     inkscape:window-width="1920"
     inkscape:window-height="1033"
     inkscape:window-x="0"
     inkscape:window-y="47"
     inkscape:window-maximized="1"
     inkscape:current-layer="g4360" />
  <g
     id="g4360"
     inkscape:groupmode="layer"
     inkscape:label="paper2"
     transform="matrix(1.3333333,0,0,-1.3333333,-202.34284,559.66576)">
    <g
       id="g5612"
       transform="matrix(1.0129,0,0,1.0129,148.50956,256.74614)">
      <g
         id="g5614">
        <g
           id="g5616">
          <g
             id="g5618"
             clip-path="url(#clipPath5622-3)">
            <path
               d="M 35.00024,29.203365 H 236.99976 V 136.48886 H 35.00024 Z"
               style="fill:#ffffff;fill-opacity:1;fill-rule:nonzero;stroke:none"
               id="path5624" />
            <path
               d="m 35.00024,136.48886 h 201.99952 v 0 z"
               style="fill:#ffffff;fill-opacity:1;fill-rule:nonzero;stroke:none"
               id="path5626" />
            <path
               d="m 207.54922,136.48886 v 3.5"
               style="fill:#000000;fill-opacity:1;fill-rule:nonzero;stroke:#000000;stroke-width:0.8;stroke-linecap:butt;stroke-linejoin:round;stroke-miterlimit:10;stroke-dasharray:none;stroke-opacity:1"
               id="path5628" />
            <g
               id="g5630"
               transform="translate(202.54922,145.22323)">
              <text
                 xml:space="preserve"
                 transform="scale(1,-1)"
                 style="font-variant:normal;font-weight:normal;font-size:8px;font-family:'STIX Two Math';-inkscape-font-specification:STIXGeneral-Regular;writing-mode:lr-tb;fill:#000000;fill-opacity:1;fill-rule:nonzero;stroke:none"
                 id="text5634"><tspan
                   x="0 4 6"
                   y="0"
                   sodipodi:role="line"
                   id="tspan5632">2.0</tspan></text>
            </g>
            <path
               d="m 165.37474,136.48886 v 3.5"
               style="fill:#000000;fill-opacity:1;fill-rule:nonzero;stroke:#000000;stroke-width:0.8;stroke-linecap:butt;stroke-linejoin:round;stroke-miterlimit:10;stroke-dasharray:none;stroke-opacity:1"
               id="path5636" />
            <g
               id="g5638"
               transform="translate(160.37474,145.22323)">
              <text
                 xml:space="preserve"
                 transform="scale(1,-1)"
                 style="font-variant:normal;font-weight:normal;font-size:8px;font-family:'STIX Two Math';-inkscape-font-specification:STIXGeneral-Regular;writing-mode:lr-tb;fill:#000000;fill-opacity:1;fill-rule:nonzero;stroke:none"
                 id="text5642"><tspan
                   x="0 4 6"
                   y="0"
                   sodipodi:role="line"
                   id="tspan5640">2.2</tspan></text>
            </g>
            <path
               d="m 129.08878,136.48886 v 3.5"
               style="fill:#000000;fill-opacity:1;fill-rule:nonzero;stroke:#000000;stroke-width:0.8;stroke-linecap:butt;stroke-linejoin:round;stroke-miterlimit:10;stroke-dasharray:none;stroke-opacity:1"
               id="path5644" />
            <g
               id="g5646"
               transform="translate(124.08878,145.22323)">
              <text
                 xml:space="preserve"
                 transform="scale(1,-1)"
                 style="font-variant:normal;font-weight:normal;font-size:8px;font-family:'STIX Two Math';-inkscape-font-specification:STIXGeneral-Regular;writing-mode:lr-tb;fill:#000000;fill-opacity:1;fill-rule:nonzero;stroke:none"
                 id="text5650"><tspan
                   x="0 4 6"
                   y="0"
                   sodipodi:role="line"
                   id="tspan5648">2.4</tspan></text>
            </g>
            <path
               d="m 97.627717,136.48886 v 3.5"
               style="fill:#000000;fill-opacity:1;fill-rule:nonzero;stroke:#000000;stroke-width:0.8;stroke-linecap:butt;stroke-linejoin:round;stroke-miterlimit:10;stroke-dasharray:none;stroke-opacity:1"
               id="path5652" />
            <g
               id="g5654"
               transform="translate(92.627717,145.22323)">
              <text
                 xml:space="preserve"
                 transform="scale(1,-1)"
                 style="font-variant:normal;font-weight:normal;font-size:8px;font-family:'STIX Two Math';-inkscape-font-specification:STIXGeneral-Regular;writing-mode:lr-tb;fill:#000000;fill-opacity:1;fill-rule:nonzero;stroke:none"
                 id="text5658"><tspan
                   x="0 4 6"
                   y="0"
                   sodipodi:role="line"
                   id="tspan5656">2.6</tspan></text>
            </g>
            <path
               d="m 70.153535,136.48886 v 3.5"
               style="fill:#000000;fill-opacity:1;fill-rule:nonzero;stroke:#000000;stroke-width:0.8;stroke-linecap:butt;stroke-linejoin:round;stroke-miterlimit:10;stroke-dasharray:none;stroke-opacity:1"
               id="path5660" />
            <g
               id="g5662"
               transform="translate(65.153535,145.22323)">
              <text
                 xml:space="preserve"
                 transform="scale(1,-1)"
                 style="font-variant:normal;font-weight:normal;font-size:8px;font-family:'STIX Two Math';-inkscape-font-specification:STIXGeneral-Regular;writing-mode:lr-tb;fill:#000000;fill-opacity:1;fill-rule:nonzero;stroke:none"
                 id="text5666"><tspan
                   x="0 4 6"
                   y="0"
                   sodipodi:role="line"
                   id="tspan5664">2.8</tspan></text>
            </g>
            <path
               d="m 45.997216,136.48886 v 3.5"
               style="fill:#000000;fill-opacity:1;fill-rule:nonzero;stroke:#000000;stroke-width:0.8;stroke-linecap:butt;stroke-linejoin:round;stroke-miterlimit:10;stroke-dasharray:none;stroke-opacity:1"
               id="path5668" />
            <g
               id="g5670"
               transform="translate(40.997216,145.22323)">
              <text
                 xml:space="preserve"
                 transform="scale(1,-1)"
                 style="font-variant:normal;font-weight:normal;font-size:8px;font-family:'STIX Two Math';-inkscape-font-specification:STIXGeneral-Regular;writing-mode:lr-tb;fill:#000000;fill-opacity:1;fill-rule:nonzero;stroke:none"
                 id="text5674"><tspan
                   x="0 4 6"
                   y="0"
                   sodipodi:role="line"
                   id="tspan5672">3.0</tspan></text>
            </g>
            <g
               id="g5676"
               transform="translate(119.5,154.69198)">
              <text
                 xml:space="preserve"
                 transform="matrix(1,0,0,-1,0,0.53125)"
                 style="font-variant:normal;font-weight:normal;font-size:8px;font-family:'STIX Two Math';-inkscape-font-specification:STIXGeneral-Regular;writing-mode:lr-tb;fill:#000000;fill-opacity:1;fill-rule:nonzero;stroke:none"
                 id="text5680"><tspan
                   x="0 5.3359833 8.88797 12.887955 15.999939 19.999924 22.223907 24.887894 27.111877"
                   y="0"
                   sodipodi:role="line"
                   id="tspan5678">Redshift </tspan></text>
              <text
                 xml:space="preserve"
                 transform="matrix(1,0,0,-1,29.111862,0.53125)"
                 style="font-style:italic;font-variant:normal;font-size:8px;font-family:'STIX Two Math';-inkscape-font-specification:STIXGeneral-Italic;writing-mode:lr-tb;fill:#000000;fill-opacity:1;fill-rule:nonzero;stroke:none"
                 id="text5684"><tspan
                   x="0"
                   y="0"
                   id="tspan5682">z</tspan></text>
            </g>
            <path
               d="M 236.99976,136.48886 H 35.00024"
               style="fill:none;stroke:#000000;stroke-width:0.8;stroke-linecap:square;stroke-linejoin:miter;stroke-miterlimit:10;stroke-dasharray:none;stroke-opacity:1"
               id="path5686" />
            <path
               d="m 61.226038,29.203365 v -3.5"
               style="fill:#000000;fill-opacity:1;fill-rule:nonzero;stroke:#000000;stroke-width:0.8;stroke-linecap:butt;stroke-linejoin:round;stroke-miterlimit:10;stroke-dasharray:none;stroke-opacity:1"
               id="path5688" />
            <g
               id="g5690"
               transform="translate(54.226038,16.734615)">
              <text
                 xml:space="preserve"
                 transform="scale(1,-1)"
                 style="font-variant:normal;font-weight:normal;font-size:8px;font-family:'STIX Two Math';-inkscape-font-specification:STIXGeneral-Regular;writing-mode:lr-tb;fill:#000000;fill-opacity:1;fill-rule:nonzero;stroke:none"
                 id="text5694"><tspan
                   x="0 4 6 10"
                   y="0"
                   sodipodi:role="line"
                   id="tspan5692">2.25</tspan></text>
            </g>
            <path
               d="m 96.885729,29.203365 v -3.5"
               style="fill:#000000;fill-opacity:1;fill-rule:nonzero;stroke:#000000;stroke-width:0.8;stroke-linecap:butt;stroke-linejoin:round;stroke-miterlimit:10;stroke-dasharray:none;stroke-opacity:1"
               id="path5696" />
            <g
               id="g5698"
               transform="translate(89.885729,16.734615)">
              <text
                 xml:space="preserve"
                 transform="scale(1,-1)"
                 style="font-variant:normal;font-weight:normal;font-size:8px;font-family:'STIX Two Math';-inkscape-font-specification:STIXGeneral-Regular;writing-mode:lr-tb;fill:#000000;fill-opacity:1;fill-rule:nonzero;stroke:none"
                 id="text5702"><tspan
                   x="0 4 6 10"
                   y="0"
                   sodipodi:role="line"
                   id="tspan5700">2.50</tspan></text>
            </g>
            <path
               d="m 132.54542,29.203365 v -3.5"
               style="fill:#000000;fill-opacity:1;fill-rule:nonzero;stroke:#000000;stroke-width:0.8;stroke-linecap:butt;stroke-linejoin:round;stroke-miterlimit:10;stroke-dasharray:none;stroke-opacity:1"
               id="path5704" />
            <g
               id="g5706"
               transform="translate(125.54542,16.734615)">
              <text
                 xml:space="preserve"
                 transform="scale(1,-1)"
                 style="font-variant:normal;font-weight:normal;font-size:8px;font-family:'STIX Two Math';-inkscape-font-specification:STIXGeneral-Regular;writing-mode:lr-tb;fill:#000000;fill-opacity:1;fill-rule:nonzero;stroke:none"
                 id="text5710"><tspan
                   x="0 4 6 10"
                   y="0"
                   sodipodi:role="line"
                   id="tspan5708">2.75</tspan></text>
            </g>
            <path
               d="m 168.20511,29.203365 v -3.5"
               style="fill:#000000;fill-opacity:1;fill-rule:nonzero;stroke:#000000;stroke-width:0.8;stroke-linecap:butt;stroke-linejoin:round;stroke-miterlimit:10;stroke-dasharray:none;stroke-opacity:1"
               id="path5712" />
            <g
               id="g5714"
               transform="translate(161.20511,16.734615)">
              <text
                 xml:space="preserve"
                 transform="scale(1,-1)"
                 style="font-variant:normal;font-weight:normal;font-size:8px;font-family:'STIX Two Math';-inkscape-font-specification:STIXGeneral-Regular;writing-mode:lr-tb;fill:#000000;fill-opacity:1;fill-rule:nonzero;stroke:none"
                 id="text5718"><tspan
                   x="0 4 6 10"
                   y="0"
                   sodipodi:role="line"
                   id="tspan5716">3.00</tspan></text>
            </g>
            <path
               d="m 203.8648,29.203365 v -3.5"
               style="fill:#000000;fill-opacity:1;fill-rule:nonzero;stroke:#000000;stroke-width:0.8;stroke-linecap:butt;stroke-linejoin:round;stroke-miterlimit:10;stroke-dasharray:none;stroke-opacity:1"
               id="path5720" />
            <g
               id="g5722"
               transform="translate(196.8648,16.734615)">
              <text
                 xml:space="preserve"
                 transform="scale(1,-1)"
                 style="font-variant:normal;font-weight:normal;font-size:8px;font-family:'STIX Two Math';-inkscape-font-specification:STIXGeneral-Regular;writing-mode:lr-tb;fill:#000000;fill-opacity:1;fill-rule:nonzero;stroke:none"
                 id="text5726"><tspan
                   x="0 4 6 10"
                   y="0"
                   sodipodi:role="line"
                   id="tspan5724">3.25</tspan></text>
            </g>
            <g
               id="g5728"
               transform="translate(125,5.00024)">
              <text
                 xml:space="preserve"
                 transform="matrix(1,0,0,-1,0,0.59375)"
                 style="font-style:italic;font-variant:normal;font-size:8px;font-family:'STIX Two Math';-inkscape-font-specification:STIXGeneral-Italic;writing-mode:lr-tb;fill:#000000;fill-opacity:1;fill-rule:nonzero;stroke:none"
                 id="text5732"><tspan
                   x="0"
                   y="0"
                   id="tspan5730">t</tspan></text>
              <text
                 xml:space="preserve"
                 transform="matrix(1,0,0,-1,4.2239685,0.59375)"
                 style="font-variant:normal;font-weight:normal;font-size:8px;font-family:'STIX Two Math';-inkscape-font-specification:STIXGeneral-Regular;writing-mode:lr-tb;fill:#000000;fill-opacity:1;fill-rule:nonzero;stroke:none"
                 id="text5736"><tspan
                   x="0 2.6639862 8.4399719 12.439957 15.103943"
                   y="0"
                   sodipodi:role="line"
                   id="tspan5734">(Gyr)</tspan></text>
            </g>
            <path
               d="m 35.00024,55.400598 h -3.5"
               style="fill:#000000;fill-opacity:1;fill-rule:nonzero;stroke:#000000;stroke-width:0.8;stroke-linecap:butt;stroke-linejoin:round;stroke-miterlimit:10;stroke-dasharray:none;stroke-opacity:1"
               id="path5738" />
            <g
               id="g5740"
               transform="translate(16.00024,52.267786)">
              <text
                 xml:space="preserve"
                 transform="matrix(1,0,0,-1,0,0.340625)"
                 style="font-variant:normal;font-weight:normal;font-size:8px;font-family:'STIX Two Math';-inkscape-font-specification:STIXGeneral-Regular;writing-mode:lr-tb;fill:#000000;fill-opacity:1;fill-rule:nonzero;stroke:none"
                 id="text5744"><tspan
                   x="0 3.9999847"
                   y="0"
                   sodipodi:role="line"
                   id="tspan5742">10</tspan></text>
              <text
                 xml:space="preserve"
                 transform="matrix(1,0,0,-1,8.1257507,3.215625)"
                 style="font-variant:normal;font-weight:normal;font-size:5.6px;font-family:'STIX Two Math';-inkscape-font-specification:STIXGeneral-Regular;writing-mode:lr-tb;fill:#000000;fill-opacity:1;fill-rule:nonzero;stroke:none"
                 id="text5748"><tspan
                   x="0"
                   y="0"
                   id="tspan5746">2</tspan></text>
            </g>
            <path
               d="m 35.00024,105.50253 h -3.5"
               style="fill:#000000;fill-opacity:1;fill-rule:nonzero;stroke:#000000;stroke-width:0.8;stroke-linecap:butt;stroke-linejoin:round;stroke-miterlimit:10;stroke-dasharray:none;stroke-opacity:1"
               id="path5750" />
            <g
               id="g5752"
               transform="translate(16.00024,102.36971)">
              <text
                 xml:space="preserve"
                 transform="matrix(1,0,0,-1,0,0.340625)"
                 style="font-variant:normal;font-weight:normal;font-size:8px;font-family:'STIX Two Math';-inkscape-font-specification:STIXGeneral-Regular;writing-mode:lr-tb;fill:#000000;fill-opacity:1;fill-rule:nonzero;stroke:none"
                 id="text5756"><tspan
                   x="0 3.9999847"
                   y="0"
                   sodipodi:role="line"
                   id="tspan5754">10</tspan></text>
              <text
                 xml:space="preserve"
                 transform="matrix(1,0,0,-1,8.1257507,3.215625)"
                 style="font-variant:normal;font-weight:normal;font-size:5.6px;font-family:'STIX Two Math';-inkscape-font-specification:STIXGeneral-Regular;writing-mode:lr-tb;fill:#000000;fill-opacity:1;fill-rule:nonzero;stroke:none"
                 id="text5760"><tspan
                   x="0"
                   y="0"
                   id="tspan5758">3</tspan></text>
            </g>
            <path
               d="m 35.00024,29.203365 h -2"
               style="fill:#000000;fill-opacity:1;fill-rule:nonzero;stroke:#000000;stroke-width:0.6;stroke-linecap:butt;stroke-linejoin:round;stroke-miterlimit:10;stroke-dasharray:none;stroke-opacity:1"
               id="path5762" />
            <path
               d="m 35.00024,35.463037 h -2"
               style="fill:#000000;fill-opacity:1;fill-rule:nonzero;stroke:#000000;stroke-width:0.6;stroke-linecap:butt;stroke-linejoin:round;stroke-miterlimit:10;stroke-dasharray:none;stroke-opacity:1"
               id="path5764" />
            <path
               d="m 35.00024,40.318415 h -2"
               style="fill:#000000;fill-opacity:1;fill-rule:nonzero;stroke:#000000;stroke-width:0.6;stroke-linecap:butt;stroke-linejoin:round;stroke-miterlimit:10;stroke-dasharray:none;stroke-opacity:1"
               id="path5766" />
            <path
               d="m 35.00024,44.285548 h -2"
               style="fill:#000000;fill-opacity:1;fill-rule:nonzero;stroke:#000000;stroke-width:0.6;stroke-linecap:butt;stroke-linejoin:round;stroke-miterlimit:10;stroke-dasharray:none;stroke-opacity:1"
               id="path5768" />
            <path
               d="m 35.00024,47.639711 h -2"
               style="fill:#000000;fill-opacity:1;fill-rule:nonzero;stroke:#000000;stroke-width:0.6;stroke-linecap:butt;stroke-linejoin:round;stroke-miterlimit:10;stroke-dasharray:none;stroke-opacity:1"
               id="path5770" />
            <path
               d="m 35.00024,50.54522 h -2"
               style="fill:#000000;fill-opacity:1;fill-rule:nonzero;stroke:#000000;stroke-width:0.6;stroke-linecap:butt;stroke-linejoin:round;stroke-miterlimit:10;stroke-dasharray:none;stroke-opacity:1"
               id="path5772" />
            <path
               d="m 35.00024,53.10806 h -2"
               style="fill:#000000;fill-opacity:1;fill-rule:nonzero;stroke:#000000;stroke-width:0.6;stroke-linecap:butt;stroke-linejoin:round;stroke-miterlimit:10;stroke-dasharray:none;stroke-opacity:1"
               id="path5774" />
            <path
               d="m 35.00024,70.482781 h -2"
               style="fill:#000000;fill-opacity:1;fill-rule:nonzero;stroke:#000000;stroke-width:0.6;stroke-linecap:butt;stroke-linejoin:round;stroke-miterlimit:10;stroke-dasharray:none;stroke-opacity:1"
               id="path5776" />
            <path
               d="m 35.00024,79.305293 h -2"
               style="fill:#000000;fill-opacity:1;fill-rule:nonzero;stroke:#000000;stroke-width:0.6;stroke-linecap:butt;stroke-linejoin:round;stroke-miterlimit:10;stroke-dasharray:none;stroke-opacity:1"
               id="path5778" />
            <path
               d="m 35.00024,85.564965 h -2"
               style="fill:#000000;fill-opacity:1;fill-rule:nonzero;stroke:#000000;stroke-width:0.6;stroke-linecap:butt;stroke-linejoin:round;stroke-miterlimit:10;stroke-dasharray:none;stroke-opacity:1"
               id="path5780" />
            <path
               d="m 35.00024,90.420343 h -2"
               style="fill:#000000;fill-opacity:1;fill-rule:nonzero;stroke:#000000;stroke-width:0.6;stroke-linecap:butt;stroke-linejoin:round;stroke-miterlimit:10;stroke-dasharray:none;stroke-opacity:1"
               id="path5782" />
            <path
               d="m 35.00024,94.387476 h -2"
               style="fill:#000000;fill-opacity:1;fill-rule:nonzero;stroke:#000000;stroke-width:0.6;stroke-linecap:butt;stroke-linejoin:round;stroke-miterlimit:10;stroke-dasharray:none;stroke-opacity:1"
               id="path5784" />
            <path
               d="m 35.00024,97.741639 h -2"
               style="fill:#000000;fill-opacity:1;fill-rule:nonzero;stroke:#000000;stroke-width:0.6;stroke-linecap:butt;stroke-linejoin:round;stroke-miterlimit:10;stroke-dasharray:none;stroke-opacity:1"
               id="path5786" />
            <path
               d="m 35.00024,100.64715 h -2"
               style="fill:#000000;fill-opacity:1;fill-rule:nonzero;stroke:#000000;stroke-width:0.6;stroke-linecap:butt;stroke-linejoin:round;stroke-miterlimit:10;stroke-dasharray:none;stroke-opacity:1"
               id="path5788" />
            <path
               d="m 35.00024,103.20999 h -2"
               style="fill:#000000;fill-opacity:1;fill-rule:nonzero;stroke:#000000;stroke-width:0.6;stroke-linecap:butt;stroke-linejoin:round;stroke-miterlimit:10;stroke-dasharray:none;stroke-opacity:1"
               id="path5790" />
            <path
               d="m 35.00024,120.58471 h -2"
               style="fill:#000000;fill-opacity:1;fill-rule:nonzero;stroke:#000000;stroke-width:0.6;stroke-linecap:butt;stroke-linejoin:round;stroke-miterlimit:10;stroke-dasharray:none;stroke-opacity:1"
               id="path5792" />
            <path
               d="m 35.00024,129.40722 h -2"
               style="fill:#000000;fill-opacity:1;fill-rule:nonzero;stroke:#000000;stroke-width:0.6;stroke-linecap:butt;stroke-linejoin:round;stroke-miterlimit:10;stroke-dasharray:none;stroke-opacity:1"
               id="path5794" />
            <path
               d="m 35.00024,135.66689 h -2"
               style="fill:#000000;fill-opacity:1;fill-rule:nonzero;stroke:#000000;stroke-width:0.6;stroke-linecap:butt;stroke-linejoin:round;stroke-miterlimit:10;stroke-dasharray:none;stroke-opacity:1"
               id="path5796" />
            <g
               id="g5798"
               transform="rotate(90,-23.922936,33.923176)">
              <text
                 xml:space="preserve"
                 transform="matrix(1,0,0,-1,0,0.340625)"
                 style="font-style:italic;font-variant:normal;font-size:8px;font-family:'STIX Two Math';-inkscape-font-specification:STIXGeneral-Italic;writing-mode:lr-tb;fill:#000000;fill-opacity:1;fill-rule:nonzero;stroke:none"
                 id="text5802"><tspan
                   x="0"
                   y="0"
                   id="tspan5800">j</tspan></text>
              <text
                 xml:space="preserve"
                 transform="matrix(1,0,0,-1,10.114363,0.340625)"
                 style="font-variant:normal;font-weight:normal;font-size:8px;font-family:'STIX Two Math';-inkscape-font-specification:STIXGeneral-Regular;writing-mode:lr-tb;fill:#000000;fill-opacity:1;fill-rule:nonzero;stroke:none"
                 id="text5806"><tspan
                   x="0 2.6639862 6.6639709 13.925306"
                   y="0"
                   sodipodi:role="line"
                   id="tspan5804">(kms</tspan></text>
              <text
                 xml:space="preserve"
                 transform="matrix(1,0,0,-1,31.113421,3.215625)"
                 style="font-variant:normal;font-weight:normal;font-size:5.6px;font-family:'STIX Two Math';-inkscape-font-specification:STIXGeneral-Regular;writing-mode:lr-tb;fill:#000000;fill-opacity:1;fill-rule:nonzero;stroke:none"
                 id="text5810"><tspan
                   x="0"
                   y="0"
                   id="tspan5808">1</tspan></text>
              <text
                 xml:space="preserve"
                 transform="matrix(1,0,0,-1,35.310137,0.340625)"
                 style="font-variant:normal;font-weight:normal;font-size:8px;font-family:'STIX Two Math';-inkscape-font-specification:STIXGeneral-Regular;writing-mode:lr-tb;fill:#000000;fill-opacity:1;fill-rule:nonzero;stroke:none"
                 id="text5814"><tspan
                   x="0 3.9999847 7.9999695 11.551956"
                   y="0"
                   sodipodi:role="line"
                   id="tspan5812">kpc)</tspan></text>
              <g
                 id="g5816"
                 transform="matrix(0.0056,0,0,0.0056,3.0326218,-0.71875)">
                <g
                   id="g5818">
                  <g
                     id="g5820"
                     clip-path="url(#clipPath5824-1)">
                    <path
                       d="M 665,365 439,228 546,-12 350,166 154,-12 261,228 35,365 297,335 350,597 403,335 Z"
                       style="fill:#000000;fill-opacity:1;fill-rule:nonzero;stroke:none"
                       id="path5826" />
                  </g>
                </g>
              </g>
              <g
                 id="g5828"
                 transform="matrix(0.0056,0,0,0.0056,27.277435,3.215625)">
                <g
                   id="g5830">
                  <g
                     id="g5832"
                     clip-path="url(#clipPath5836-6)">
                    <path
                       d="M 621,220 H 64 v 66 h 557 z"
                       style="fill:#000000;fill-opacity:1;fill-rule:nonzero;stroke:none"
                       id="path5838" />
                  </g>
                </g>
              </g>
            </g>
            <g
               id="g5840">
              <g
                 id="g5842"
                 clip-path="url(#clipPath5846-2)">
                <path
                   d="m 221.35969,104.96473 -4.10741,0.80154 -4.14013,-2.3018 -3.64065,-2.50344 -0.39724,-1.213063 -4.13948,3.605663 -4.0613,-1.62605 -4.10785,6.03814 -4.0981,-1.73717 -4.00521,-0.48588 -2.9049,0.0526 -1.19391,0.10073 -1.21571,-0.80347 -2.81857,-1.15784 -4.00805,-1.84211 -4.04385,-0.89269 -3.98249,1.71397 -3.98015,2.56116 -2.82655,-0.22759 -1.23725,-0.71197 -3.98984,1.17819 -3.95791,0.69933 -3.94828,2.32452 -3.96156,0.18961 -3.92905,3.27524 -2.91429,1.74198 -0.99961,-0.28672 -3.90021,1.80003 -3.9445,1.96805 -3.86615,2.04515 -3.8964,1.24216 -3.84027,-1.67723 -3.84976,1.59654 -1.64404,0.36434 -2.22016,0.89255 -3.82661,-0.6537 -3.22203,-1.11831 -0.57852,-32.479846 -3.855291,-4.113726 -3.78697,0.157724 -3.791366,-0.284692 -3.807317,0.305392 -3.700023,1.850094 -3.796781,-2.453544 -3.748508,-0.520737 -3.669976,1.010372 -3.72823,-2.185144 -3.706791,-0.721865 -1.122957,2.480123 -2.551009,-0.517244 -3.686928,-2.163211 -3.666669,-2.131249 -3.642242,0.890079 -3.645004,0.145953 -3.637293,3.860199 -0.513424,0.295144 -3.104044,-0.597223 -3.613674,-0.73065 -3.533453,1.516812 -3.598126,2.370701 -3.59094,-4.561983 -1.500656,1.640231 -2.044072,2.611677 -3.492441,4.288212 -3.495227,0.940527 L 10.40895,91.261637 6.890889,90.642452 3.425205,90.394369 -0.030524,88.420781 -1,88.57609"
                   style="fill:none;stroke:#0000ff;stroke-width:1.5;stroke-linecap:square;stroke-linejoin:round;stroke-miterlimit:10;stroke-dasharray:none;stroke-opacity:1"
                   id="path5848" />
              </g>
            </g>
            <g
               id="g5850">
              <g
                 id="g5852"
                 clip-path="url(#clipPath5856-6)">
                <path
                   d="m 221.34494,109.2143 -4.05322,0.47037 -0.17681,0.17677 -3.98899,-0.37999 -4.08206,-0.20087 -4.10593,2.39681 -4.11519,-1.82134 -4.08846,0.44417 -1.98409,-0.077 -2.01866,1.67965 -4.11146,-0.0731 -4.01983,1.05895 -0.73779,0.72295 -3.3603,-2.01698 -4.03692,1.22438 -3.9718,-0.54596 -0.57211,0.61833 -3.47124,-0.54577 -3.97287,0.42794 -4.0111,2.51915 -3.97432,1.89829 -3.96498,2.88124 -3.32643,2.84619 -0.61919,1.84601 -3.95716,-0.12383 -3.97126,2.0351 -3.86804,0.16059 -3.92716,-0.34395 -3.90323,0.28741 -3.89774,0.54283 -3.90528,-2.19428 -2.79762,-51.951224 -1.04176,-1.226271 -3.90474,-1.684037 -1.00891,0.449312 -2.83482,-1.013213 -3.82964,-0.582183 -3.77545,-0.795943 -3.803798,10.107139 -3.816077,0.500161 -3.81622,0.46977 -3.729217,0.252008 -2.154517,1.387124 -1.653811,0.417948 -3.715028,-0.05007 -3.756327,1.810722 -3.728385,-3.04267 -3.689562,0.959671 -3.733852,-1.009256 -3.675891,-0.493541 -3.677723,0.969825 -3.685293,0.472633 -2.504659,0.612286 -1.155748,-0.702302 -3.63786,-3.57267 L 44.68398,76.166202 42.408612,77.381388 38.80146,74.698575 35.239767,73.5817 31.616089,76.971012 28.031092,83.160233 24.508748,82.037235 20.946031,81.627707 17.391995,84.855952 13.88687,83.669464 10.388316,85.851006 6.905048,85.840294 3.428792,86.149175 -0.016245,84.576754 -1,83.508475"
                   style="fill:none;stroke:#7676ff;stroke-width:1.5;stroke-linecap:square;stroke-linejoin:round;stroke-miterlimit:10;stroke-dasharray:none;stroke-opacity:1"
                   id="path5858" />
              </g>
            </g>
            <g
               id="g5860">
              <g
                 id="g5862"
                 clip-path="url(#clipPath5866-5)">
                <path
                   d="m 221.39195,117.41322 -4.12901,-0.1406 -4.1453,1.7231 -2.91575,-0.60858 -1.1693,-0.15338 -4.08774,-0.87317 -1.75571,1.66784 -2.37455,-2.89538 -4.05782,0.90296 -4.06587,6.08688 -4.02981,-0.0417 -4.09705,-44.105969 -0.39867,0.007 -3.58877,0.300464 -4.07775,0.176699 -4.03656,-0.393135 -3.99432,-0.145963 -3.9812,-0.479332 -4.01153,-0.515036 -3.97728,-0.41821 -3.93937,0.424152 -2.26177,-0.199136 -1.70306,-0.14913 -3.96759,-0.50294 -3.89518,0.399434 -3.96607,-0.912011 -3.94812,-1.959999 -3.8626,0.269157 -3.87679,0.75025 -1.82586,-0.536227 -2.08191,0.643988 -3.87907,0.397802 -3.86448,-0.947334 -0.70607,-0.785959 -3.13817,-1.050709 -3.83658,-0.778779 -3.77909,-0.883221 -3.87076,-0.871826 -3.797179,-1.645367 -3.771678,-0.27843 -3.78438,-0.618387 -3.783934,-0.337034 -3.706278,6.960912 -3.228163,1.397719 -0.534612,-0.0418 -3.718589,-0.08672 -3.704058,-0.06745 -3.722943,-0.132697 -3.643133,-0.374706 -3.377259,-0.500602 -0.319585,0.0068 -3.668544,-0.302117 -3.650633,-0.429111 -3.63917,-0.214648 -3.652287,-0.507963 -3.602159,-0.698188 -0.834882,-0.02046 L 35.200071,72.570848 31.632316,71.82388 28.017458,71.243892 24.52331,72.622695 20.914902,71.593694 17.407444,72.023822 13.88023,71.901228 10.414179,69.886682 6.896194,71.776268 3.415583,67.681285 -0.064954,67.670674 -1,68.596752"
                   style="fill:none;stroke:#ff8a8a;stroke-width:1.5;stroke-linecap:square;stroke-linejoin:round;stroke-miterlimit:10;stroke-dasharray:none;stroke-opacity:1"
                   id="path5868" />
              </g>
            </g>
            <g
               id="g5870">
              <g
                 id="g5872"
                 clip-path="url(#clipPath5876-4)">
                <path
                   d="m 221.35789,109.24715 -0.26936,0.53251 -3.7951,-0.1008 -2.97384,1.21945 -1.18877,2.19221 -4.10592,3.66914 -4.12639,-1.755 -4.07076,-1.79449 -2.69059,0.14331 -1.34381,0.71524 -4.06106,-2.08467 -4.13617,0.23628 -3.98789,-0.4187 -4.08263,1.82563 -4.01329,-0.73714 -1.97719,0.9914 -2.06204,-2.20426 -4.00019,3.4303 -3.99903,9.2174 -4.00623,0.35441 -3.94572,6.25071 -4.00237,-53.577934 -2.32353,-2.302743 -1.62001,0.0049 -3.98417,0.02281 -3.94128,-1.1808 -3.90783,1.071992 -3.92122,1.443183 -2.69345,-1.066702 -1.18227,-0.318494 -3.91991,-1.177287 -3.89267,-0.334124 -3.83065,-0.627371 -3.89113,-0.383353 -3.83398,-0.35728 -3.83373,-0.949031 -3.80125,-0.05891 -3.857431,-0.271185 -1.203497,0.2429 -2.539544,-0.0095 -3.845595,3.680284 -3.761625,3.645514 -3.766916,0.455359 -3.721152,0.108775 -3.74779,-0.17893 -3.695466,0.145534 -3.213838,0.151436 -0.508796,-0.134904 -3.740615,-0.183929 -3.672335,-0.04784 -1.951848,-0.236118 -1.723828,-0.164124 -3.66451,-0.118636 -3.645664,-0.215561 -3.619179,-0.17105 -3.611218,-0.147952 -3.625307,0.137435 -1.635149,-0.177043 -1.982615,0.824216 -3.588163,0.0386 -3.573372,0.854002 -3.559724,-0.71113 -3.55101,-0.6657 -3.532899,-0.709262 -3.503318,0.842055 L 10.413202,75.325889 6.899206,75.117844 3.400289,79.786049 0.86106,80.62591 -0.04654,81.32017 -1,80.396626"
                   style="fill:none;stroke:#7f7f7f;stroke-width:1.5;stroke-linecap:square;stroke-linejoin:round;stroke-miterlimit:10;stroke-dasharray:none;stroke-opacity:1"
                   id="path5878" />
              </g>
            </g>
            <g
               id="g5880">
              <g
                 id="g5882"
                 clip-path="url(#clipPath5886-6)">
                <path
                   d="M 207.61935,29.203365 V 136.48886"
                   style="fill:none;stroke:#000000;stroke-width:1;stroke-linecap:butt;stroke-linejoin:round;stroke-miterlimit:10;stroke-dasharray:3.7, 1.6;stroke-dashoffset:0;stroke-opacity:1"
                   id="path5888" />
              </g>
            </g>
            <g
               id="g5890">
              <path
                 d="M 35.00024,29.203365 V 136.48886"
                 style="fill:none;stroke:#000000;stroke-width:0.8;stroke-linecap:square;stroke-linejoin:miter;stroke-miterlimit:10;stroke-dasharray:none;stroke-opacity:1"
                 id="path5892" />
              <path
                 d="M 236.99976,29.203365 V 136.48886"
                 style="fill:none;stroke:#000000;stroke-width:0.8;stroke-linecap:square;stroke-linejoin:miter;stroke-miterlimit:10;stroke-dasharray:none;stroke-opacity:1"
                 id="path5894" />
              <path
                 d="M 35.00024,29.203365 H 236.99976"
                 style="fill:none;stroke:#000000;stroke-width:0.8;stroke-linecap:square;stroke-linejoin:miter;stroke-miterlimit:10;stroke-dasharray:none;stroke-opacity:1"
                 id="path5896" />
              <path
                 d="M 35.00024,136.48886 H 236.99976"
                 style="fill:none;stroke:#000000;stroke-width:0.8;stroke-linecap:square;stroke-linejoin:miter;stroke-miterlimit:10;stroke-dasharray:none;stroke-opacity:1"
                 id="path5898" />
              <path
                 d="m 102.54022,59.39744 c 0,5.970088 0,11.567498 0,16.792229"
                 style="fill:none;stroke:#0000ff;stroke-width:1;stroke-linecap:round;stroke-linejoin:round;stroke-miterlimit:10;stroke-dasharray:none;stroke-opacity:1"
                 id="path5900" />
              <path
                 d="m 101.61382,74.336869 0.9264,1.8528 0.9264,-1.8528"
                 style="fill:none;stroke:#0000ff;stroke-width:1;stroke-linecap:round;stroke-linejoin:round;stroke-miterlimit:10;stroke-dasharray:none;stroke-opacity:1"
                 id="path5902" />
              <g
                 id="g5904"
                 transform="rotate(35,-28.012167,184.46625)">
                <text
                   xml:space="preserve"
                   transform="scale(1,-1)"
                   style="font-variant:normal;font-weight:normal;font-size:4.632px;font-family:'STIX Two Math';-inkscape-font-specification:STIXGeneral-Regular;writing-mode:lr-tb;fill:#0000ff;fill-opacity:1;fill-rule:nonzero;stroke:none"
                   id="text5908"><tspan
                     x="0 2.316 3.6036961"
                     y="0"
                     sodipodi:role="line"
                     id="tspan5906">1:3</tspan></text>
              </g>
              <path
                 d="m 121.15132,55.626894 c 0,5.970088 0,11.567498 0,16.79223"
                 style="fill:none;stroke:#7676ff;stroke-width:1;stroke-linecap:round;stroke-linejoin:round;stroke-miterlimit:10;stroke-dasharray:none;stroke-opacity:1"
                 id="path5910" />
              <path
                 d="m 120.22492,70.566324 0.9264,1.8528 0.9264,-1.8528"
                 style="fill:none;stroke:#7676ff;stroke-width:1;stroke-linecap:round;stroke-linejoin:round;stroke-miterlimit:10;stroke-dasharray:none;stroke-opacity:1"
                 id="path5912" />
              <g
                 id="g5914"
                 transform="rotate(35,-12.727297,212.09441)">
                <text
                   xml:space="preserve"
                   transform="scale(1,-1)"
                   style="font-variant:normal;font-weight:normal;font-size:4.632px;font-family:'STIX Two Math';-inkscape-font-specification:STIXGeneral-Regular;writing-mode:lr-tb;fill:#7676ff;fill-opacity:1;fill-rule:nonzero;stroke:none"
                   id="text5918"><tspan
                     x="0 2.316 3.6036961"
                     y="0"
                     sodipodi:role="line"
                     id="tspan5916">1:3</tspan></text>
              </g>
              <path
                 d="m 156.52191,51.856348 c 0,5.970088 0,11.567498 0,16.79223"
                 style="fill:none;stroke:#7f7f7f;stroke-width:1;stroke-linecap:round;stroke-linejoin:round;stroke-miterlimit:10;stroke-dasharray:none;stroke-opacity:1"
                 id="path5920" />
              <path
                 d="m 155.59551,66.795778 0.9264,1.8528 0.9264,-1.8528"
                 style="fill:none;stroke:#7f7f7f;stroke-width:1;stroke-linecap:round;stroke-linejoin:round;stroke-miterlimit:10;stroke-dasharray:none;stroke-opacity:1"
                 id="path5922" />
              <g
                 id="g5924"
                 transform="rotate(35,10.937318,266.29972)">
                <text
                   xml:space="preserve"
                   transform="scale(1,-1)"
                   style="font-variant:normal;font-weight:normal;font-size:4.632px;font-family:'STIX Two Math';-inkscape-font-specification:STIXGeneral-Regular;writing-mode:lr-tb;fill:#7f7f7f;fill-opacity:1;fill-rule:nonzero;stroke:none"
                   id="text5928"><tspan
                     x="0 2.316 3.6036961"
                     y="0"
                     sodipodi:role="line"
                     id="tspan5926">1:3</tspan></text>
              </g>
              <path
                 d="m 188.66109,48.085803 c 0,5.970087 0,11.567497 0,16.792229"
                 style="fill:none;stroke:#ff8a8a;stroke-width:1;stroke-linecap:round;stroke-linejoin:round;stroke-miterlimit:10;stroke-dasharray:none;stroke-opacity:1"
                 id="path5930" />
              <path
                 d="m 187.73469,63.025232 0.9264,1.8528 0.9264,-1.8528"
                 style="fill:none;stroke:#ff8a8a;stroke-width:1;stroke-linecap:round;stroke-linejoin:round;stroke-miterlimit:10;stroke-dasharray:none;stroke-opacity:1"
                 id="path5932" />
              <g
                 id="g5934"
                 transform="rotate(35,32.98623,315.38068)">
                <text
                   xml:space="preserve"
                   transform="scale(1,-1)"
                   style="font-variant:normal;font-weight:normal;font-size:4.632px;font-family:'STIX Two Math';-inkscape-font-specification:STIXGeneral-Regular;writing-mode:lr-tb;fill:#ff8a8a;fill-opacity:1;fill-rule:nonzero;stroke:none"
                   id="text5938"><tspan
                     x="0 2.316 3.6036961"
                     y="0"
                     sodipodi:role="line"
                     id="tspan5936">1:3</tspan></text>
              </g>
              <path
                 d="m 47.532716,35.014515 -0.09625,-0.12875 c -0.619167,0.3525 -1.099583,0.837916 -1.44125,1.45625 -0.340833,0.618333 -0.51125,1.277083 -0.51125,1.97625 0,1.4775 0.65875,2.607916 1.97625,3.39125 l 0.0725,-0.1275 c -0.544167,-0.464167 -0.907083,-0.921667 -1.08875,-1.3725 -0.180833,-0.45 -0.27125,-1.0725 -0.27125,-1.8675 0,-0.789167 0.09333,-1.429167 0.28,-1.92 0.186667,-0.490834 0.546667,-0.96 1.08,-1.4075 z m 3.415249,2.535 0.1125,-0.07125 c -0.229167,-0.448334 -0.447917,-0.755 -0.65625,-0.92 -0.271667,-0.224167 -0.578333,-0.33625 -0.92,-0.33625 -0.4425,0 -0.806667,0.166666 -1.0925,0.5 -0.285,0.333333 -0.4275,0.75875 -0.4275,1.27625 0,0.6775 0.224167,1.202916 0.6725,1.57625 0.33,0.271666 0.69,0.4075 1.08,0.4075 0.335833,0 0.625,-0.08125 0.8675,-0.24375 0.2425,-0.1625 0.36375,-0.355834 0.36375,-0.58 0,-0.09083 -0.0375,-0.169584 -0.1125,-0.23625 -0.07417,-0.06667 -0.162083,-0.1 -0.26375,-0.1 -0.186667,0 -0.314583,0.1225 -0.38375,0.3675 l -0.0475,0.17625 c -0.0425,0.149166 -0.09583,0.250416 -0.16,0.30375 -0.06417,0.05333 -0.168333,0.08 -0.3125,0.08 -0.325,0 -0.5875,-0.127917 -0.7875,-0.38375 -0.2,-0.255834 -0.3,-0.591667 -0.3,-1.0075 0,-0.459167 0.114583,-0.834167 0.34375,-1.125 0.229167,-0.29 0.527917,-0.435 0.89625,-0.435 0.229167,0 0.42625,0.05458 0.59125,0.16375 0.165833,0.109166 0.344583,0.305 0.53625,0.5875 z m 0.60075,4.0325 0.095,0.1275 c 0.608333,-0.3625 1.085833,-0.853334 1.4325,-1.4725 0.346666,-0.618334 0.52,-1.27125 0.52,-1.95875 0,-1.455834 -0.65875,-2.586667 -1.97625,-3.3925 l -0.07125,0.12875 c 0.549166,0.453333 0.912916,0.905 1.09125,1.355 0.179166,0.450833 0.26875,1.079166 0.26875,1.885 0,0.81 -0.08958,1.459166 -0.26875,1.9475 -0.178334,0.488333 -0.542084,0.948333 -1.09125,1.38 z m 10.055247,-5.28 h -2.23125 v 0.1525 c 0.309167,0.02083 0.50375,0.08042 0.58375,0.17875 0.08,0.09917 0.12,0.319583 0.12,0.66125 v 1.5275 h -2.42375 v -1.61625 c 0,-0.293334 0.0425,-0.487917 0.1275,-0.58375 0.085,-0.09583 0.274167,-0.151667 0.5675,-0.1675 l 0.0087,-0.1525 h -2.2325 v 0.1525 c 0.315,0.02083 0.5125,0.07792 0.5925,0.17125 0.08,0.09333 0.12,0.310833 0.12,0.6525 v 3.4075 c 0,0.309166 -0.04167,0.50625 -0.125,0.59125 -0.0825,0.08583 -0.278333,0.142083 -0.5875,0.16875 v 0.1525 h 2.24 v -0.1525 c -0.298333,-0.02667 -0.491666,-0.08417 -0.58,-0.1725 -0.0875,-0.0875 -0.13125,-0.283334 -0.13125,-0.5875 v -1.51125 h 2.42375 v 1.51125 c 0,0.309166 -0.04167,0.50625 -0.125,0.59125 -0.0825,0.08583 -0.278333,0.142083 -0.5875,0.16875 v 0.1525 h 2.24 v -0.1525 c -0.298333,-0.02667 -0.491666,-0.08417 -0.58,-0.1725 -0.0875,-0.0875 -0.13125,-0.283334 -0.13125,-0.5875 v -3.49625 c 0,-0.2825 0.04375,-0.470417 0.13125,-0.56375 0.08833,-0.09333 0.281667,-0.150417 0.58,-0.17125 v -0.1525 z m 3.688499,0.5275 v -0.22375 c -0.2025,-0.255834 -0.4425,-0.38375 -0.72,-0.38375 -0.304167,0 -0.475,0.194583 -0.5125,0.58375 h -0.0075 c -0.341667,-0.389167 -0.728333,-0.58375 -1.16,-0.58375 -0.250833,0 -0.45375,0.07333 -0.60875,0.22 -0.154167,0.146666 -0.23125,0.350833 -0.23125,0.6125 0,0.373333 0.186667,0.685 0.56,0.935 0.255833,0.170833 0.735833,0.387083 1.44,0.64875 v 0.43125 c 0,0.24 -0.0575,0.42 -0.1725,0.54 -0.114167,0.12 -0.264583,0.18 -0.45125,0.18 -0.16,0 -0.293333,-0.03875 -0.4,-0.11625 -0.106667,-0.07667 -0.16,-0.168334 -0.16,-0.275 0,-0.04833 0.0079,-0.102084 0.02375,-0.16125 0.01583,-0.05833 0.02375,-0.116667 0.02375,-0.175 0,-0.08 -0.03625,-0.154584 -0.10875,-0.22375 -0.07167,-0.06917 -0.157917,-0.10375 -0.25875,-0.10375 -0.09083,0 -0.17125,0.03458 -0.24125,0.10375 -0.06917,0.06917 -0.10375,0.157083 -0.10375,0.26375 0,0.255833 0.13625,0.469166 0.40875,0.64 0.250833,0.16 0.5575,0.24 0.92,0.24 0.431667,0 0.74625,-0.12 0.94375,-0.36 0.09583,-0.111667 0.157083,-0.225 0.18375,-0.34 0.02667,-0.115 0.04,-0.2975 0.04,-0.5475 v -1.52875 c 0,-0.351667 0.08292,-0.5275 0.24875,-0.5275 0.106667,0 0.22125,0.05042 0.34375,0.15125 z m -1.24,0.48875 v 1.1275 c -0.490833,-0.170834 -0.832083,-0.346667 -1.02375,-0.5275 -0.181667,-0.165834 -0.2725,-0.37125 -0.2725,-0.61625 0,-0.2025 0.05042,-0.355834 0.15125,-0.46 0.101667,-0.104167 0.235417,-0.15625 0.40125,-0.15625 0.175833,0 0.330417,0.04292 0.46375,0.12875 0.111667,0.08 0.18625,0.154583 0.22375,0.22375 0.0375,0.06917 0.05625,0.1625 0.05625,0.28 z m 3.311999,-1.01625 h -1.88875 v 0.12 c 0.250834,0.02167 0.41625,0.07375 0.49625,0.15625 0.08,0.0825 0.12,0.235833 0.12,0.46 v 3.75125 c 0,0.1925 -0.02417,0.325833 -0.0725,0.4 -0.0475,0.075 -0.135416,0.1125 -0.26375,0.1125 -0.111666,0 -0.21,-0.0054 -0.295,-0.01625 v 0.12875 c 0.506667,0.1225 0.927917,0.239583 1.26375,0.35125 l 0.04,-0.03125 v -4.73625 c 0,-0.224167 0.03708,-0.3725 0.11125,-0.445 0.075,-0.07167 0.237917,-0.115417 0.48875,-0.13125 z m 3.927749,1.8475 c 0,-0.56 -0.166666,-1.02125 -0.5,-1.38375 -0.333333,-0.3625 -0.766666,-0.54375 -1.3,-0.54375 -0.490833,0 -0.901666,0.18 -1.2325,0.54 -0.33,0.36 -0.495,0.814583 -0.495,1.36375 0,0.555 0.165,1.002916 0.495,1.34375 0.330834,0.341666 0.765834,0.5125 1.305,0.5125 0.495834,0 0.9075,-0.169584 1.235,-0.50875 0.328334,-0.338334 0.4925,-0.779584 0.4925,-1.32375 z m -0.72,-0.215 c 0,0.6075 -0.133333,1.082083 -0.4,1.42375 -0.213333,0.266666 -0.466666,0.4 -0.76,0.4 -0.2775,0 -0.501666,-0.113334 -0.6725,-0.34 -0.17,-0.226667 -0.255,-0.5375 -0.255,-0.9325 0,-0.6825 0.14125,-1.229167 0.42375,-1.64 0.180834,-0.266667 0.420834,-0.4 0.72,-0.4 0.293334,0 0.52375,0.132083 0.69125,0.39625 0.168334,0.264166 0.2525,0.628333 0.2525,1.0925 z m 6.919998,1.6075 h -0.8325 l -0.16,-1.0725 h 0.7925 v -0.44 h -0.86375 l -0.24875,-1.7275 h -0.46375 l 0.24875,1.7275 h -1.0725 l -0.26375,-1.7275 h -0.46375 l 0.26375,1.7275 h -0.84875 v 0.44 h 0.92 l 0.16875,1.0725 h -0.8725 v 0.44 h 0.93625 l 0.2475,1.61625 h 0.465 l -0.24875,-1.61625 h 1.06375 l 0.24,1.61625 h 0.465 l -0.24,-1.61625 h 0.7675 z m -1.29625,0 h -1.06375 l -0.1675,-1.0725 h 1.07125 z m 4.488749,-3.24 h -2.20875 v 0.12 c 0.293333,0.01583 0.493333,0.07042 0.6,0.16375 0.106666,0.09333 0.16,0.252083 0.16,0.47625 v 3.5925 c 0,0.260833 -0.08,0.39125 -0.24,0.39125 -0.07417,0 -0.194167,-0.03208 -0.36,-0.09625 l -0.21625,-0.08 v 0.1125 l 1.4325,0.7275 0.0725,-0.02375 v -4.77625 c 0,-0.175834 0.05333,-0.30125 0.16,-0.37625 0.106666,-0.07417 0.306666,-0.11125 0.6,-0.11125 z m 4.407499,1.24 c 0,-0.410834 -0.142917,-0.739167 -0.42875,-0.985 -0.285,-0.245 -0.6675,-0.3675 -1.1475,-0.3675 -0.4475,0 -0.815417,0.1225 -1.10375,0.3675 -0.288334,0.245833 -0.4325,0.558333 -0.4325,0.9375 0,0.2825 0.06917,0.52375 0.2075,0.72375 0.139166,0.2 0.416666,0.446666 0.8325,0.74 -0.4,0.330833 -0.665417,0.5975 -0.79625,0.8 -0.13,0.2025 -0.195,0.437083 -0.195,0.70375 0,0.378333 0.145,0.680833 0.435,0.9075 0.290833,0.226666 0.662916,0.34 1.11625,0.34 0.39,0 0.711666,-0.110834 0.965,-0.3325 0.253333,-0.220834 0.38,-0.49125 0.38,-0.81125 0,-0.293334 -0.07625,-0.527917 -0.22875,-0.70375 -0.151667,-0.175834 -0.432917,-0.373334 -0.84375,-0.5925 0.48,-0.32 0.806666,-0.605417 0.98,-0.85625 0.173333,-0.25 0.26,-0.540417 0.26,-0.87125 z m -0.72,3.02375 c 0,0.2775 -0.0775,0.5 -0.2325,0.6675 -0.154167,0.168333 -0.3675,0.2525 -0.64,0.2525 -0.271667,0 -0.48625,-0.07083 -0.64375,-0.2125 -0.1575,-0.140834 -0.23625,-0.334167 -0.23625,-0.58 0,-0.245 0.07875,-0.4675 0.23625,-0.6675 0.1575,-0.2 0.412083,-0.40375 0.76375,-0.61125 0.2725,0.16 0.465833,0.329166 0.58,0.5075 0.115,0.178333 0.1725,0.392916 0.1725,0.64375 z m -0.6725,-2.0875 -0.47125,0.32 c -0.235,-0.1925 -0.400417,-0.380834 -0.49625,-0.565 -0.09583,-0.183334 -0.14375,-0.405834 -0.14375,-0.6675 0,-0.3625 0.09167,-0.645 0.275,-0.8475 0.184166,-0.2025 0.43125,-0.30375 0.74125,-0.30375 0.260833,0 0.4725,0.08125 0.635,0.24375 0.163333,0.1625 0.245,0.374583 0.245,0.63625 0,0.24 -0.06167,0.450416 -0.185,0.63125 -0.1225,0.181666 -0.3225,0.365833 -0.6,0.5525 z m 5.639998,0.46375 c 0,-0.3575 -0.03458,-0.695 -0.10375,-1.0125 -0.06917,-0.316667 -0.171666,-0.608334 -0.3075,-0.875 -0.135833,-0.266667 -0.32375,-0.4775 -0.56375,-0.6325 -0.24,-0.155 -0.5175,-0.2325 -0.8325,-0.2325 -0.325,0 -0.610416,0.0825 -0.85625,0.2475 -0.245,0.165833 -0.434166,0.3875 -0.5675,0.665 -0.133333,0.2775 -0.230833,0.573333 -0.2925,0.8875 -0.06083,0.315 -0.09125,0.648333 -0.09125,1 0,0.496666 0.06125,0.943333 0.18375,1.34 0.1225,0.3975 0.32625,0.726666 0.61125,0.9875 0.285834,0.261666 0.634167,0.3925 1.045,0.3925 0.5225,0 0.94875,-0.255834 1.27875,-0.7675 0.330834,-0.511667 0.49625,-1.178334 0.49625,-2 z m -0.7675,-0.04 c 0,0.8425 -0.08958,1.48625 -0.26875,1.93125 -0.178333,0.445833 -0.440833,0.66875 -0.7875,0.66875 -0.330833,0 -0.584166,-0.224167 -0.76,-0.6725 -0.175833,-0.4475 -0.26375,-1.079167 -0.26375,-1.895 0,-0.821667 0.08792,-1.45 0.26375,-1.885 0.175834,-0.434167 0.434584,-0.65125 0.77625,-0.65125 0.335834,0 0.592917,0.217083 0.77125,0.65125 0.179167,0.435 0.26875,1.0525 0.26875,1.8525 z m 4.463749,2.8475 -0.2875,-0.68 c -0.0325,-0.06917 -0.104583,-0.10375 -0.21625,-0.10375 h -1.5525 l -0.32,-0.68 c 0.586667,-0.111667 1.010833,-0.232917 1.2725,-0.36375 0.261667,-0.130834 0.504167,-0.350834 0.7275,-0.66 0.186667,-0.255834 0.28,-0.594584 0.28,-1.01625 0,-0.384167 -0.0625,-0.707084 -0.1875,-0.96875 -0.125,-0.260834 -0.32375,-0.4925 -0.59625,-0.695 -0.3625,-0.261667 -0.815833,-0.3925 -1.36,-0.3925 -0.304167,0 -0.549583,0.04542 -0.73625,0.13625 -0.186667,0.09083 -0.28,0.210833 -0.28,0.36 0,0.2025 0.12,0.30375 0.36,0.30375 0.1925,0 0.39,-0.0825 0.5925,-0.2475 0.208333,-0.170834 0.3975,-0.25625 0.5675,-0.25625 0.2775,0 0.526667,0.13875 0.7475,0.41625 0.221667,0.2775 0.3325,0.589583 0.3325,0.93625 0,0.511666 -0.178333,0.911666 -0.535,1.2 -0.464167,0.373333 -1.0325,0.56 -1.705,0.56 -0.06333,0 -0.095,0.02125 -0.095,0.06375 l 0.0075,0.04 0.8725,1.89625 h 1.655 c 0.09083,0 0.161667,0.01333 0.2125,0.04 0.05083,0.02667 0.108333,0.0825 0.1725,0.1675 z m 4.288749,-4.35125 -0.4325,-1.09625 h -3.1275 v 0.09625 l 1.42375,1.51125 c 0.373333,0.39 0.64,0.7475 0.8,1.0725 0.16,0.325 0.24,0.660833 0.24,1.0075 0,0.3575 -0.09875,0.635 -0.29625,0.8325 -0.1975,0.1975 -0.469583,0.29625 -0.81625,0.29625 -0.2875,0 -0.515417,-0.075 -0.68375,-0.225 -0.168333,-0.149167 -0.3325,-0.420834 -0.4925,-0.815 l -0.1675,0.04 c 0.09083,0.495833 0.273333,0.885 0.5475,1.1675 0.275,0.2825 0.647083,0.42375 1.11625,0.42375 0.4425,0 0.799583,-0.133334 1.07125,-0.4 0.2725,-0.266667 0.40875,-0.6025 0.40875,-1.0075 0,-0.6025 -0.34125,-1.26375 -1.02375,-1.98375 l -1.32,-1.40875 h 1.8725 c 0.175833,0 0.315417,0.03458 0.41875,0.10375 0.104167,0.07 0.220417,0.214166 0.34875,0.4325 z"
                 style="fill:#1f77b4;fill-opacity:1;fill-rule:nonzero;stroke:#ffffff;stroke-width:1;stroke-linecap:butt;stroke-linejoin:round;stroke-miterlimit:10;stroke-dasharray:none;stroke-opacity:1"
                 id="path5940" />
              <path
                 d="m 47.532716,35.014515 -0.09625,-0.12875 c -0.619167,0.3525 -1.099583,0.837916 -1.44125,1.45625 -0.340833,0.618333 -0.51125,1.277083 -0.51125,1.97625 0,1.4775 0.65875,2.607916 1.97625,3.39125 l 0.0725,-0.1275 c -0.544167,-0.464167 -0.907083,-0.921667 -1.08875,-1.3725 -0.180833,-0.45 -0.27125,-1.0725 -0.27125,-1.8675 0,-0.789167 0.09333,-1.429167 0.28,-1.92 0.186667,-0.490834 0.546667,-0.96 1.08,-1.4075 z m 3.415249,2.535 0.1125,-0.07125 c -0.229167,-0.448334 -0.447917,-0.755 -0.65625,-0.92 -0.271667,-0.224167 -0.578333,-0.33625 -0.92,-0.33625 -0.4425,0 -0.806667,0.166666 -1.0925,0.5 -0.285,0.333333 -0.4275,0.75875 -0.4275,1.27625 0,0.6775 0.224167,1.202916 0.6725,1.57625 0.33,0.271666 0.69,0.4075 1.08,0.4075 0.335833,0 0.625,-0.08125 0.8675,-0.24375 0.2425,-0.1625 0.36375,-0.355834 0.36375,-0.58 0,-0.09083 -0.0375,-0.169584 -0.1125,-0.23625 -0.07417,-0.06667 -0.162083,-0.1 -0.26375,-0.1 -0.186667,0 -0.314583,0.1225 -0.38375,0.3675 l -0.0475,0.17625 c -0.0425,0.149166 -0.09583,0.250416 -0.16,0.30375 -0.06417,0.05333 -0.168333,0.08 -0.3125,0.08 -0.325,0 -0.5875,-0.127917 -0.7875,-0.38375 -0.2,-0.255834 -0.3,-0.591667 -0.3,-1.0075 0,-0.459167 0.114583,-0.834167 0.34375,-1.125 0.229167,-0.29 0.527917,-0.435 0.89625,-0.435 0.229167,0 0.42625,0.05458 0.59125,0.16375 0.165833,0.109166 0.344583,0.305 0.53625,0.5875 z m 0.60075,4.0325 0.095,0.1275 c 0.608333,-0.3625 1.085833,-0.853334 1.4325,-1.4725 0.346666,-0.618334 0.52,-1.27125 0.52,-1.95875 0,-1.455834 -0.65875,-2.586667 -1.97625,-3.3925 l -0.07125,0.12875 c 0.549166,0.453333 0.912916,0.905 1.09125,1.355 0.179166,0.450833 0.26875,1.079166 0.26875,1.885 0,0.81 -0.08958,1.459166 -0.26875,1.9475 -0.178334,0.488333 -0.542084,0.948333 -1.09125,1.38 z m 10.055247,-5.28 h -2.23125 v 0.1525 c 0.309167,0.02083 0.50375,0.08042 0.58375,0.17875 0.08,0.09917 0.12,0.319583 0.12,0.66125 v 1.5275 h -2.42375 v -1.61625 c 0,-0.293334 0.0425,-0.487917 0.1275,-0.58375 0.085,-0.09583 0.274167,-0.151667 0.5675,-0.1675 l 0.0087,-0.1525 h -2.2325 v 0.1525 c 0.315,0.02083 0.5125,0.07792 0.5925,0.17125 0.08,0.09333 0.12,0.310833 0.12,0.6525 v 3.4075 c 0,0.309166 -0.04167,0.50625 -0.125,0.59125 -0.0825,0.08583 -0.278333,0.142083 -0.5875,0.16875 v 0.1525 h 2.24 v -0.1525 c -0.298333,-0.02667 -0.491666,-0.08417 -0.58,-0.1725 -0.0875,-0.0875 -0.13125,-0.283334 -0.13125,-0.5875 v -1.51125 h 2.42375 v 1.51125 c 0,0.309166 -0.04167,0.50625 -0.125,0.59125 -0.0825,0.08583 -0.278333,0.142083 -0.5875,0.16875 v 0.1525 h 2.24 v -0.1525 c -0.298333,-0.02667 -0.491666,-0.08417 -0.58,-0.1725 -0.0875,-0.0875 -0.13125,-0.283334 -0.13125,-0.5875 v -3.49625 c 0,-0.2825 0.04375,-0.470417 0.13125,-0.56375 0.08833,-0.09333 0.281667,-0.150417 0.58,-0.17125 v -0.1525 z m 3.688499,0.5275 v -0.22375 c -0.2025,-0.255834 -0.4425,-0.38375 -0.72,-0.38375 -0.304167,0 -0.475,0.194583 -0.5125,0.58375 h -0.0075 c -0.341667,-0.389167 -0.728333,-0.58375 -1.16,-0.58375 -0.250833,0 -0.45375,0.07333 -0.60875,0.22 -0.154167,0.146666 -0.23125,0.350833 -0.23125,0.6125 0,0.373333 0.186667,0.685 0.56,0.935 0.255833,0.170833 0.735833,0.387083 1.44,0.64875 v 0.43125 c 0,0.24 -0.0575,0.42 -0.1725,0.54 -0.114167,0.12 -0.264583,0.18 -0.45125,0.18 -0.16,0 -0.293333,-0.03875 -0.4,-0.11625 -0.106667,-0.07667 -0.16,-0.168334 -0.16,-0.275 0,-0.04833 0.0079,-0.102084 0.02375,-0.16125 0.01583,-0.05833 0.02375,-0.116667 0.02375,-0.175 0,-0.08 -0.03625,-0.154584 -0.10875,-0.22375 -0.07167,-0.06917 -0.157917,-0.10375 -0.25875,-0.10375 -0.09083,0 -0.17125,0.03458 -0.24125,0.10375 -0.06917,0.06917 -0.10375,0.157083 -0.10375,0.26375 0,0.255833 0.13625,0.469166 0.40875,0.64 0.250833,0.16 0.5575,0.24 0.92,0.24 0.431667,0 0.74625,-0.12 0.94375,-0.36 0.09583,-0.111667 0.157083,-0.225 0.18375,-0.34 0.02667,-0.115 0.04,-0.2975 0.04,-0.5475 v -1.52875 c 0,-0.351667 0.08292,-0.5275 0.24875,-0.5275 0.106667,0 0.22125,0.05042 0.34375,0.15125 z m -1.24,0.48875 v 1.1275 c -0.490833,-0.170834 -0.832083,-0.346667 -1.02375,-0.5275 -0.181667,-0.165834 -0.2725,-0.37125 -0.2725,-0.61625 0,-0.2025 0.05042,-0.355834 0.15125,-0.46 0.101667,-0.104167 0.235417,-0.15625 0.40125,-0.15625 0.175833,0 0.330417,0.04292 0.46375,0.12875 0.111667,0.08 0.18625,0.154583 0.22375,0.22375 0.0375,0.06917 0.05625,0.1625 0.05625,0.28 z m 3.311999,-1.01625 h -1.88875 v 0.12 c 0.250834,0.02167 0.41625,0.07375 0.49625,0.15625 0.08,0.0825 0.12,0.235833 0.12,0.46 v 3.75125 c 0,0.1925 -0.02417,0.325833 -0.0725,0.4 -0.0475,0.075 -0.135416,0.1125 -0.26375,0.1125 -0.111666,0 -0.21,-0.0054 -0.295,-0.01625 v 0.12875 c 0.506667,0.1225 0.927917,0.239583 1.26375,0.35125 l 0.04,-0.03125 v -4.73625 c 0,-0.224167 0.03708,-0.3725 0.11125,-0.445 0.075,-0.07167 0.237917,-0.115417 0.48875,-0.13125 z m 3.927749,1.8475 c 0,-0.56 -0.166666,-1.02125 -0.5,-1.38375 -0.333333,-0.3625 -0.766666,-0.54375 -1.3,-0.54375 -0.490833,0 -0.901666,0.18 -1.2325,0.54 -0.33,0.36 -0.495,0.814583 -0.495,1.36375 0,0.555 0.165,1.002916 0.495,1.34375 0.330834,0.341666 0.765834,0.5125 1.305,0.5125 0.495834,0 0.9075,-0.169584 1.235,-0.50875 0.328334,-0.338334 0.4925,-0.779584 0.4925,-1.32375 z m -0.72,-0.215 c 0,0.6075 -0.133333,1.082083 -0.4,1.42375 -0.213333,0.266666 -0.466666,0.4 -0.76,0.4 -0.2775,0 -0.501666,-0.113334 -0.6725,-0.34 -0.17,-0.226667 -0.255,-0.5375 -0.255,-0.9325 0,-0.6825 0.14125,-1.229167 0.42375,-1.64 0.180834,-0.266667 0.420834,-0.4 0.72,-0.4 0.293334,0 0.52375,0.132083 0.69125,0.39625 0.168334,0.264166 0.2525,0.628333 0.2525,1.0925 z m 6.919998,1.6075 h -0.8325 l -0.16,-1.0725 h 0.7925 v -0.44 h -0.86375 l -0.24875,-1.7275 h -0.46375 l 0.24875,1.7275 h -1.0725 l -0.26375,-1.7275 h -0.46375 l 0.26375,1.7275 h -0.84875 v 0.44 h 0.92 l 0.16875,1.0725 h -0.8725 v 0.44 h 0.93625 l 0.2475,1.61625 h 0.465 l -0.24875,-1.61625 h 1.06375 l 0.24,1.61625 h 0.465 l -0.24,-1.61625 h 0.7675 z m -1.29625,0 h -1.06375 l -0.1675,-1.0725 h 1.07125 z m 4.488749,-3.24 h -2.20875 v 0.12 c 0.293333,0.01583 0.493333,0.07042 0.6,0.16375 0.106666,0.09333 0.16,0.252083 0.16,0.47625 v 3.5925 c 0,0.260833 -0.08,0.39125 -0.24,0.39125 -0.07417,0 -0.194167,-0.03208 -0.36,-0.09625 l -0.21625,-0.08 v 0.1125 l 1.4325,0.7275 0.0725,-0.02375 v -4.77625 c 0,-0.175834 0.05333,-0.30125 0.16,-0.37625 0.106666,-0.07417 0.306666,-0.11125 0.6,-0.11125 z m 4.407499,1.24 c 0,-0.410834 -0.142917,-0.739167 -0.42875,-0.985 -0.285,-0.245 -0.6675,-0.3675 -1.1475,-0.3675 -0.4475,0 -0.815417,0.1225 -1.10375,0.3675 -0.288334,0.245833 -0.4325,0.558333 -0.4325,0.9375 0,0.2825 0.06917,0.52375 0.2075,0.72375 0.139166,0.2 0.416666,0.446666 0.8325,0.74 -0.4,0.330833 -0.665417,0.5975 -0.79625,0.8 -0.13,0.2025 -0.195,0.437083 -0.195,0.70375 0,0.378333 0.145,0.680833 0.435,0.9075 0.290833,0.226666 0.662916,0.34 1.11625,0.34 0.39,0 0.711666,-0.110834 0.965,-0.3325 0.253333,-0.220834 0.38,-0.49125 0.38,-0.81125 0,-0.293334 -0.07625,-0.527917 -0.22875,-0.70375 -0.151667,-0.175834 -0.432917,-0.373334 -0.84375,-0.5925 0.48,-0.32 0.806666,-0.605417 0.98,-0.85625 0.173333,-0.25 0.26,-0.540417 0.26,-0.87125 z m -0.72,3.02375 c 0,0.2775 -0.0775,0.5 -0.2325,0.6675 -0.154167,0.168333 -0.3675,0.2525 -0.64,0.2525 -0.271667,0 -0.48625,-0.07083 -0.64375,-0.2125 -0.1575,-0.140834 -0.23625,-0.334167 -0.23625,-0.58 0,-0.245 0.07875,-0.4675 0.23625,-0.6675 0.1575,-0.2 0.412083,-0.40375 0.76375,-0.61125 0.2725,0.16 0.465833,0.329166 0.58,0.5075 0.115,0.178333 0.1725,0.392916 0.1725,0.64375 z m -0.6725,-2.0875 -0.47125,0.32 c -0.235,-0.1925 -0.400417,-0.380834 -0.49625,-0.565 -0.09583,-0.183334 -0.14375,-0.405834 -0.14375,-0.6675 0,-0.3625 0.09167,-0.645 0.275,-0.8475 0.184166,-0.2025 0.43125,-0.30375 0.74125,-0.30375 0.260833,0 0.4725,0.08125 0.635,0.24375 0.163333,0.1625 0.245,0.374583 0.245,0.63625 0,0.24 -0.06167,0.450416 -0.185,0.63125 -0.1225,0.181666 -0.3225,0.365833 -0.6,0.5525 z m 5.639998,0.46375 c 0,-0.3575 -0.03458,-0.695 -0.10375,-1.0125 -0.06917,-0.316667 -0.171666,-0.608334 -0.3075,-0.875 -0.135833,-0.266667 -0.32375,-0.4775 -0.56375,-0.6325 -0.24,-0.155 -0.5175,-0.2325 -0.8325,-0.2325 -0.325,0 -0.610416,0.0825 -0.85625,0.2475 -0.245,0.165833 -0.434166,0.3875 -0.5675,0.665 -0.133333,0.2775 -0.230833,0.573333 -0.2925,0.8875 -0.06083,0.315 -0.09125,0.648333 -0.09125,1 0,0.496666 0.06125,0.943333 0.18375,1.34 0.1225,0.3975 0.32625,0.726666 0.61125,0.9875 0.285834,0.261666 0.634167,0.3925 1.045,0.3925 0.5225,0 0.94875,-0.255834 1.27875,-0.7675 0.330834,-0.511667 0.49625,-1.178334 0.49625,-2 z m -0.7675,-0.04 c 0,0.8425 -0.08958,1.48625 -0.26875,1.93125 -0.178333,0.445833 -0.440833,0.66875 -0.7875,0.66875 -0.330833,0 -0.584166,-0.224167 -0.76,-0.6725 -0.175833,-0.4475 -0.26375,-1.079167 -0.26375,-1.895 0,-0.821667 0.08792,-1.45 0.26375,-1.885 0.175834,-0.434167 0.434584,-0.65125 0.77625,-0.65125 0.335834,0 0.592917,0.217083 0.77125,0.65125 0.179167,0.435 0.26875,1.0525 0.26875,1.8525 z m 4.463749,2.8475 -0.2875,-0.68 c -0.0325,-0.06917 -0.104583,-0.10375 -0.21625,-0.10375 h -1.5525 l -0.32,-0.68 c 0.586667,-0.111667 1.010833,-0.232917 1.2725,-0.36375 0.261667,-0.130834 0.504167,-0.350834 0.7275,-0.66 0.186667,-0.255834 0.28,-0.594584 0.28,-1.01625 0,-0.384167 -0.0625,-0.707084 -0.1875,-0.96875 -0.125,-0.260834 -0.32375,-0.4925 -0.59625,-0.695 -0.3625,-0.261667 -0.815833,-0.3925 -1.36,-0.3925 -0.304167,0 -0.549583,0.04542 -0.73625,0.13625 -0.186667,0.09083 -0.28,0.210833 -0.28,0.36 0,0.2025 0.12,0.30375 0.36,0.30375 0.1925,0 0.39,-0.0825 0.5925,-0.2475 0.208333,-0.170834 0.3975,-0.25625 0.5675,-0.25625 0.2775,0 0.526667,0.13875 0.7475,0.41625 0.221667,0.2775 0.3325,0.589583 0.3325,0.93625 0,0.511666 -0.178333,0.911666 -0.535,1.2 -0.464167,0.373333 -1.0325,0.56 -1.705,0.56 -0.06333,0 -0.095,0.02125 -0.095,0.06375 l 0.0075,0.04 0.8725,1.89625 h 1.655 c 0.09083,0 0.161667,0.01333 0.2125,0.04 0.05083,0.02667 0.108333,0.0825 0.1725,0.1675 z m 4.288749,-4.35125 -0.4325,-1.09625 h -3.1275 v 0.09625 l 1.42375,1.51125 c 0.373333,0.39 0.64,0.7475 0.8,1.0725 0.16,0.325 0.24,0.660833 0.24,1.0075 0,0.3575 -0.09875,0.635 -0.29625,0.8325 -0.1975,0.1975 -0.469583,0.29625 -0.81625,0.29625 -0.2875,0 -0.515417,-0.075 -0.68375,-0.225 -0.168333,-0.149167 -0.3325,-0.420834 -0.4925,-0.815 l -0.1675,0.04 c 0.09083,0.495833 0.273333,0.885 0.5475,1.1675 0.275,0.2825 0.647083,0.42375 1.11625,0.42375 0.4425,0 0.799583,-0.133334 1.07125,-0.4 0.2725,-0.266667 0.40875,-0.6025 0.40875,-1.0075 0,-0.6025 -0.34125,-1.26375 -1.02375,-1.98375 l -1.32,-1.40875 h 1.8725 c 0.175833,0 0.315417,0.03458 0.41875,0.10375 0.104167,0.07 0.220417,0.214166 0.34875,0.4325 z"
                 style="fill:#1f77b4;fill-opacity:1;fill-rule:nonzero;stroke:none"
                 id="path5942" />
            </g>
          </g>
        </g>
      </g>
    </g>
  </g>
</svg>
