<?xml version="1.0" encoding="UTF-8" standalone="no"?>
<svg
   xmlns:dc="http://purl.org/dc/elements/1.1/"
   xmlns:cc="http://creativecommons.org/ns#"
   xmlns:rdf="http://www.w3.org/1999/02/22-rdf-syntax-ns#"
   xmlns:svg="http://www.w3.org/2000/svg"
   xmlns="http://www.w3.org/2000/svg"
   xmlns:sodipodi="http://sodipodi.sourceforge.net/DTD/sodipodi-0.dtd"
   xmlns:inkscape="http://www.inkscape.org/namespaces/inkscape"
   inkscape:version="1.0 (4035a4fb49, 2020-05-01)"
   sodipodi:docname="at.svg"
   viewBox="0 0 546.1333 546.1333"
   height="546.1333"
   width="546.1333"
   id="svg908"
   version="1.1">
  <metadata
     id="metadata914">
    <rdf:RDF>
      <cc:Work
         rdf:about="">
        <dc:format>image/svg+xml</dc:format>
        <dc:type
           rdf:resource="http://purl.org/dc/dcmitype/StillImage" />
        <dc:title></dc:title>
      </cc:Work>
    </rdf:RDF>
  </metadata>
  <defs
     id="defs912" />
  <sodipodi:namedview
     inkscape:current-layer="g916"
     inkscape:window-maximized="0"
     inkscape:window-y="42"
     inkscape:window-x="0"
     inkscape:cy="273.06665"
     inkscape:cx="128.54566"
     inkscape:zoom="1.3458253"
     showgrid="false"
     id="namedview910"
     inkscape:window-height="1037"
     inkscape:window-width="1918"
     inkscape:pageshadow="2"
     inkscape:pageopacity="0"
     guidetolerance="10"
     gridtolerance="10"
     objecttolerance="10"
     borderopacity="1"
     bordercolor="#666666"
     pagecolor="#ffffff" />
  <g
     id="g916"
     inkscape:label="Image"
     inkscape:groupmode="layer">
    <path
       id="path2106"
       d="M 228.41202,545.03305 C 180.96487,540.43102 137.08248,523.72876 100.64018,496.4013 90.002632,488.42438 69.92138,469.03484 61.559352,458.66664 33.809131,424.25873 16.595167,382.6849 10.105778,334.39998 7.80448,317.27695 7.773904,281.5312 10.04427,262.49171 26.096358,127.87741 119.19424,26.610742 246.93332,4.8170768 308.08771,-5.6165236 366.88496,1.6006581 415.61089,25.52173 c 65.15536,31.986799 106.77427,88.10662 119.28554,160.84714 3.65946,21.27609 3.94479,56.22685 0.64247,78.69778 -6.9335,47.1797 -24.61408,84.6577 -52.16501,110.57564 -26.78167,25.19427 -56.91663,37.30158 -92.97391,37.35408 -27.35779,0.0398 -45.94279,-8.38746 -57.56673,-26.10339 -4.60001,-7.01084 -9.05304,-19.33957 -10.25328,-28.38743 -0.39682,-2.9914 -1.12502,-5.4389 -1.61824,-5.4389 -0.49321,0 -3.24581,3.48118 -6.11692,7.73596 -14.54883,21.56044 -37.14949,39.41667 -58.84483,46.49187 -19.12619,6.23736 -43.1285,7.62924 -59.19999,3.43296 -41.32966,-10.79119 -65.44128,-47.10203 -65.55831,-98.72746 -0.0998,-44.0296 16.2534,-89.40556 43.6317,-121.06666 29.29783,-33.8809 66.67319,-53.81141 112.89661,-60.20243 13.9001,-1.92187 37.31636,-2.16352 52.27203,-0.53941 28.91723,3.14025 67.42462,14.38986 67.42462,19.69752 0,0.87254 -5.25188,34.10445 -11.67086,73.8487 -15.60385,96.61412 -15.82628,98.40634 -13.93105,112.24834 2.65667,19.40312 10.30143,26.66953 26.61898,25.30153 26.88405,-2.25386 51.76098,-29.6142 63.55127,-69.89546 7.22233,-24.67494 9.95107,-62.18923 6.47304,-88.99044 C 473.00063,159.96259 457.41063,126.35203 430.69959,99.331296 404.14792,72.471775 370.82316,56.786937 325.86665,49.989986 311.19372,47.771593 272.27174,48.061381 257.73051,50.497281 189.27571,61.964624 132.34538,102.17188 98.907421,162.66666 73.088468,209.37741 62.588379,268.8432 69.882859,327.04324 c 10.821765,86.34301 64.211601,146.75447 145.583791,164.73044 31.26597,6.90698 72.9199,7.09708 107.2,0.48924 18.53393,-3.5726 41.62836,-10.91124 54.07693,-17.18382 2.75565,-1.38852 5.21842,-2.16935 5.47283,-1.73518 0.70746,1.20733 13.5169,42.72238 13.5169,43.8079 0,1.74948 -22.83008,10.60801 -42.66666,16.55553 -12.40385,3.71899 -32.95976,7.75839 -49.6,9.74679 -16.6684,1.99177 -61.1504,2.92753 -75.05463,1.57891 z m 37.74469,-198.81574 c 21.235,-10.47112 38.81647,-35.51692 46.94084,-66.8699 2.46391,-9.50857 13.44021,-84.45613 12.49079,-85.28871 -1.68845,-1.48067 -13.87092,-3.12503 -23.09959,-3.1179 -41.19655,0.0318 -76.78292,31.61566 -88.7424,78.76132 -4.92684,19.4222 -5.25495,41.55481 -0.81513,54.9854 7.52175,22.75353 31.26607,32.35813 53.22549,21.52979 z"
       style="fill:#000000;stroke-width:1.06667" />
  </g>
</svg>
