<?xml version="1.0" encoding="UTF-8" standalone="no"?>
<!-- Created with Inkscape (http://www.inkscape.org/) -->

<svg
   width="381mm"
   height="147.10834mm"
   viewBox="0 0 381 147.10834"
   version="1.1"
   id="svg1"
   xml:space="preserve"
   inkscape:version="1.3 (0e150ed6c4, 2023-07-21)"
   sodipodi:docname="DIRAC.svg"
   xmlns:inkscape="http://www.inkscape.org/namespaces/inkscape"
   xmlns:sodipodi="http://sodipodi.sourceforge.net/DTD/sodipodi-0.dtd"
   xmlns="http://www.w3.org/2000/svg"
   xmlns:svg="http://www.w3.org/2000/svg"><sodipodi:namedview
     id="namedview1"
     pagecolor="#ffffff"
     bordercolor="#999999"
     borderopacity="1"
     inkscape:showpageshadow="0"
     inkscape:pageopacity="0"
     inkscape:pagecheckerboard="0"
     inkscape:deskcolor="#d1d1d1"
     inkscape:document-units="mm"
     inkscape:zoom="0.41068322"
     inkscape:cx="601.43679"
     inkscape:cy="728.05507"
     inkscape:window-width="1920"
     inkscape:window-height="1131"
     inkscape:window-x="750"
     inkscape:window-y="1472"
     inkscape:window-maximized="1"
     inkscape:current-layer="layer1" /><defs
     id="defs1" /><g
     inkscape:label="Layer 1"
     inkscape:groupmode="layer"
     id="layer1"
     transform="translate(73.024992,-103.82839)"><path
       style="fill:#bd0202;stroke:none"
       d="m -73.024992,103.82839 338.666662,0.26458 v 0.26459 c -3.67028,0.0311 -7.36815,0.70058 -10.84791,1.87112 -26.05339,8.76399 -24.87084,40.48985 -24.87084,62.9518 v 14.02291 c 0,6.35728 0.18103,12.70235 0.25929,19.05 0.16097,13.05742 2.02148,28.28677 11.19392,38.36288 7.44803,8.1818 17.92478,10.32046 28.49888,10.32046 10.99193,0 22.07746,-2.61633 29.02626,-11.90644 8.71442,-11.65061 9.07374,-26.82613 9.07374,-40.74565 h -20.6375 c 0,9.34779 0.96867,20.92247 -4.47454,29.10409 -7.19239,10.81082 -23.37638,8.11824 -28.64521,-2.91034 -4.16319,-8.71428 -3.65734,-18.90658 -3.65734,-28.31041 v -42.8625 c 0,-7.96351 -0.40627,-18.17276 4.08825,-25.13455 6.16058,-9.54242 22.93178,-9.76975 29.10918,-0.26537 4.37486,6.731 3.57966,16.40689 3.57966,24.077 h 20.6375 c 0,-18.33905 -4.22384,-40.15908 -24.34167,-46.09115 -3.25297,-0.95919 -6.66345,-1.50512 -10.05417,-1.53385 v -0.26458 l -4.7625,-0.26459 m -341.841662,1.5875 V 249.8784 c 11.28102,0 22.60005,0.25957 33.866662,-0.233 9.223493,-0.40325 19.138957,-1.59402 26.458144,-7.84618 C -1.923902,232.59398 4e-6,217.16746 4e-6,203.84089 l -8e-6,-59.00208 c -9.93e-4,-10.59721 -1.720171,-23.38326 -10.059904,-30.85219 -7.591211,-6.79857 -18.549211,-8.07223 -28.304672,-8.32028 -11.547345,-0.2936 -23.102362,-0.25045 -34.660412,-0.25045 m 132.291662,0 V 249.8784 h 14.552084 c 1.443113,0 4.273318,0.52238 5.450927,-0.49098 1.055814,-0.90855 0.634409,-3.30568 0.634489,-4.53611 v -12.17083 -50.00625 h 10.31875 c 1.339534,8e-5 3.34051,-0.33368 4.498918,0.49097 1.190625,0.84758 1.509307,2.9625 1.913433,4.27153 l 3.440389,11.1125 c 3.76138,12.27028 7.59006,24.52065 11.39638,36.77708 l 3.0302,9.78959 c 0.39513,1.27989 0.69631,3.19299 1.73487,4.12799 1.24851,1.12401 3.92534,0.63451 5.47123,0.63451 h 14.55208 c -1.48862,-8.90406 -5.53853,-17.85988 -8.28008,-26.45834 -4.85558,-15.22875 -9.20927,-30.77614 -14.73867,-45.77292 18.61671,-7.05427 21.35345,-33.07338 15.68808,-49.74166 -1.76291,-5.1867 -4.76962,-9.83606 -9.07881,-13.27098 -9.12704,-7.27532 -21.311861,-8.59407 -32.538436,-8.97562 -9.342518,-0.31752 -18.692755,-0.24299 -28.045834,-0.24299 m 80.16875,144.46251 h 14.55209 c 1.50895,0 4.22154,0.50177 5.488,-0.49098 1.7341,-1.35932 1.87133,-6.18911 2.29292,-8.24027 1.34347,-6.53642 2.78847,-13.05468 4.18936,-19.57917 0.42105,-1.96097 0.54904,-5.90499 2.10806,-7.303 1.45163,-1.30173 5.01321,-0.6345 6.82374,-0.6345 h 18.52083 l 7.67292,36.24792 c 6.6586,0 14.08031,0.91294 20.6375,-0.26459 -8.61721,-35.65213 -15.33799,-71.83815 -23.10518,-107.68542 -1.94814,-8.99107 -3.87597,-17.98763 -5.78303,-26.9875 -0.44335,-2.09226 -0.66955,-7.96219 -2.609,-9.15509 -1.88946,-1.16216 -6.02859,-0.36991 -8.19029,-0.36991 l -7.93739,3.1e-4 c -1.05584,0.002 -2.50383,-0.18584 -3.40423,0.49067 -1.59147,1.19576 -1.69809,5.09676 -2.0882,6.91735 l -3.96875,18.52084 c -5.53687,25.83949 -11.01932,51.69058 -16.58894,77.52292 l -5.55625,25.92916 c -1.06933,4.95967 -2.55945,10.02871 -3.05416,15.08126 M 17.99167,110.70756 v 20.6375 h 20.6375 v -20.6375 H 17.99167 M -52.387496,234.26798 V 121.02631 c 8.850396,0 20.879362,-1.85465 27.392481,5.57145 5.436018,6.19801 4.262018,16.44038 4.3646,24.06188 0.239746,17.81238 0.03658,35.63428 -0.0064,53.44584 -0.02036,8.44358 0.866005,18.39132 -5.154736,25.12464 -6.30618,7.05253 -18.089129,5.03786 -26.595986,5.03786 M 79.90417,167.32839 v -46.30208 c 7.962031,0 16.860163,-0.31841 23.547,4.79513 10.0484,7.68419 10.09035,29.05049 0,36.7338 -6.6776,5.08467 -15.60459,4.77315 -23.547,4.77315 m 100.80625,-30.42708 10.05417,61.38333 h -20.6375 c 2.77223,-13.92243 4.69952,-28.06514 7.03352,-42.06875 1.00828,-6.04956 1.07868,-13.69504 3.54981,-19.31458 m -162.71875,9.78958 v 73.025 20.63751 c 0,2.39321 -0.75475,6.34313 0.270825,8.53894 0.667918,1.43005 3.225894,0.98585 4.491675,0.98604 l 10.583334,2e-5 c 1.295778,-4e-5 3.344482,0.3596 4.491675,-0.36993 1.477873,-0.9398 0.799991,-4.75118 0.799991,-6.24466 v -18.78542 -77.7875 z"
       id="path8"
       sodipodi:nodetypes="cccsssssssccssssssccscccccssscsscccssccccsccccsscscsssccsssssscccsssccsccccccccccccsssscccssccccscccssccssccc" /><g
       id="g1"
       transform="translate(56.709321,123.58643)" /></g></svg>
