<?xml version="1.0" encoding="UTF-8"?>
<!-- Generator: Adobe Illustrator 25.2.3, SVG Export Plug-In . SVG Version: 6.00 Build 0)  -->
<svg version="1.1" xmlns="http://www.w3.org/2000/svg" xmlns:xlink="http://www.w3.org/1999/xlink" x="0px" y="0px" viewBox="0 0 283.46 85.04" style="enable-background:new 0 0 283.46 85.04;" xml:space="preserve">
<style type="text/css">
	.st0{fill:#868686;}
	.st1{fill:#B1B1B1;}
	.st2{fill:#C6C6C5;}
	.st3{fill:#9C9B9B;}
	.st4{fill:#164193;}
</style>
<g id="Layer_1">
	<path class="st0" d="M48.23,74.61c-0.03,0-0.06,0-0.09-0.01l-14.86-2.78c-0.01,0.01-0.69-0.05-1-0.61   c-0.26-0.48-0.26-0.96-0.26-1.01v-5.67c0-0.28,0.22-0.5,0.5-0.5s0.5,0.22,0.5,0.5v5.68c0,0.01,0,0.27,0.13,0.52   c0.03,0.05,0.18,0.09,0.24,0.1l14.93,2.79c0.27,0.05,0.45,0.31,0.4,0.58C48.67,74.44,48.46,74.61,48.23,74.61z"/>
	<path class="st0" d="M43.79,64.4c-0.03,0-0.05,0-0.08-0.01l-10.43-1.69c0.02-0.02-0.7-0.05-1.01-0.61   c-0.26-0.48-0.26-0.96-0.26-1.01v-5.67c0-0.28,0.22-0.5,0.5-0.5s0.5,0.22,0.5,0.5v5.68c0,0.01,0,0.27,0.13,0.52   c0.03,0.05,0.18,0.09,0.24,0.1l10.48,1.69c0.27,0.04,0.46,0.3,0.41,0.57C44.25,64.23,44.03,64.4,43.79,64.4z"/>
	<path class="st0" d="M39.4,54.12c-0.01,0-0.03,0-0.04,0l-6.04-0.52c-0.06,0-0.74-0.06-1.05-0.61c-0.26-0.48-0.26-0.96-0.26-1.01   V46.3c0-0.28,0.22-0.5,0.5-0.5s0.5,0.22,0.5,0.5v5.68c0,0.01,0,0.27,0.13,0.52c0.03,0.05,0.18,0.09,0.24,0.1l6.05,0.52   c0.27,0.02,0.48,0.27,0.46,0.54C39.88,53.93,39.66,54.12,39.4,54.12z"/>
	<path class="st0" d="M37.8,44.11h-5.29c-0.28,0-0.5-0.22-0.5-0.5s0.22-0.5,0.5-0.5h5.29c0.28,0,0.5,0.22,0.5,0.5   S38.08,44.11,37.8,44.11z"/>
	<path class="st0" d="M32.51,23.2c-0.28,0-0.5-0.22-0.5-0.5v-5.68c0-0.04,0-0.52,0.26-1c0.31-0.56,0.99-0.61,1.06-0.61l14.8-2.77   c0.27-0.05,0.53,0.13,0.58,0.4c0.05,0.27-0.13,0.53-0.4,0.58l-14.86,2.78c-0.15,0.01-0.28,0.06-0.31,0.1   c-0.13,0.24-0.13,0.5-0.13,0.5v5.7C33.01,22.97,32.79,23.2,32.51,23.2z"/>
	<path class="st0" d="M32.51,32.31c-0.28,0-0.5-0.22-0.5-0.5v-5.68c0-0.04,0-0.52,0.26-1c0.31-0.56,0.99-0.61,1.06-0.61l7.86-1.28   c0.27-0.05,0.53,0.14,0.57,0.41c0.04,0.27-0.14,0.53-0.41,0.57l-7.92,1.28c-0.14,0.01-0.27,0.06-0.3,0.1   c-0.13,0.24-0.13,0.51-0.13,0.51v5.69C33.01,32.08,32.79,32.31,32.51,32.31z"/>
	<path class="st0" d="M32.51,41.42c-0.28,0-0.5-0.22-0.5-0.5v-5.68c0-0.04,0-0.52,0.26-1c0.31-0.56,0.99-0.61,1.06-0.61l4.96-0.43   c0.27-0.02,0.52,0.18,0.54,0.46s-0.18,0.52-0.46,0.54l-4.98,0.43c-0.1,0.01-0.23,0.05-0.26,0.1c-0.13,0.24-0.13,0.51-0.13,0.51   v5.69C33.01,41.2,32.79,41.42,32.51,41.42z"/>
	<path class="st1" d="M28.69,68.11c-0.03,0-0.06,0-0.09-0.01l-11.69-2.19c0,0-0.59-0.04-0.86-0.53c-0.22-0.4-0.22-0.8-0.22-0.85   v-4.46c0-0.28,0.22-0.5,0.5-0.5s0.5,0.22,0.5,0.5v4.47c0,0.01,0,0.19,0.09,0.35c0.01,0,0.09,0.02,0.1,0.02l11.76,2.2   c0.27,0.05,0.45,0.31,0.4,0.58C29.14,67.94,28.93,68.11,28.69,68.11z"/>
	<path class="st1" d="M28.69,60.64c-0.03,0-0.05,0-0.08-0.01l-11.69-1.89c0,0.01-0.6-0.04-0.87-0.53c-0.22-0.4-0.22-0.8-0.22-0.85   V52.9c0-0.28,0.22-0.5,0.5-0.5s0.5,0.22,0.5,0.5v4.47c0,0.01,0,0.19,0.09,0.35h0c0.01,0,0.07,0.02,0.11,0.02l11.74,1.9   c0.27,0.04,0.46,0.3,0.41,0.57C29.15,60.47,28.94,60.64,28.69,60.64z"/>
	<path class="st1" d="M28.69,52.59c-0.01,0-0.03,0-0.04,0l-11.69-1.01c-0.05,0-0.64-0.05-0.91-0.54c-0.22-0.4-0.22-0.8-0.22-0.85   v-4.46c0-0.28,0.22-0.5,0.5-0.5s0.5,0.22,0.5,0.5v4.47c0,0.01,0,0.19,0.09,0.35c0.01,0,0.09,0.02,0.1,0.02l11.71,1.01   c0.28,0.02,0.48,0.27,0.46,0.54C29.17,52.39,28.95,52.59,28.69,52.59z"/>
	<path class="st1" d="M28.75,44.11H16.33c-0.28,0-0.5-0.22-0.5-0.5s0.22-0.5,0.5-0.5h12.42c0.28,0,0.5,0.22,0.5,0.5   S29.03,44.11,28.75,44.11z"/>
	<path class="st1" d="M16.33,27.65c-0.28,0-0.5-0.22-0.5-0.5v-4.47c0-0.03,0-0.44,0.22-0.84c0.27-0.49,0.86-0.53,0.92-0.54   l11.63-2.18c0.27-0.05,0.53,0.13,0.58,0.4c0.05,0.27-0.13,0.53-0.4,0.58L17.09,22.3c-0.1,0.01-0.16,0.03-0.18,0.05   c-0.08,0.15-0.08,0.33-0.08,0.33v4.48C16.83,27.43,16.61,27.65,16.33,27.65z"/>
	<path class="st1" d="M16.33,34.82c-0.28,0-0.5-0.22-0.5-0.5v-4.47c0-0.03,0-0.44,0.22-0.84c0.27-0.49,0.86-0.53,0.93-0.54   l11.64-1.89c0.28-0.05,0.53,0.14,0.57,0.41c0.04,0.27-0.14,0.53-0.41,0.57l-11.69,1.89c-0.09,0.01-0.15,0.03-0.17,0.04   c-0.08,0.15-0.08,0.33-0.08,0.33v4.48C16.83,34.6,16.61,34.82,16.33,34.82z"/>
	<path class="st1" d="M16.33,41.99c-0.28,0-0.5-0.22-0.5-0.5v-4.47c0-0.03,0-0.44,0.22-0.84c0.27-0.49,0.86-0.53,0.92-0.54   l11.68-1.01c0.28-0.03,0.52,0.18,0.54,0.46c0.02,0.28-0.18,0.52-0.46,0.54l-11.69,1.01c-0.05,0-0.11,0.02-0.13,0.04   c-0.08,0.15-0.08,0.33-0.08,0.33v4.48C16.83,41.77,16.61,41.99,16.33,41.99z"/>
	<path class="st2" d="M12.52,60.55c-0.03,0-0.06,0-0.09-0.01l-8.01-1.5c-0.04,0-0.48-0.04-0.7-0.44c-0.17-0.3-0.17-0.6-0.17-0.66   v-3.05c0-0.28,0.22-0.5,0.5-0.5s0.5,0.22,0.5,0.5v3.06c0,0.03,0.01,0.1,0.04,0.17l8.02,1.44c0.27,0.05,0.45,0.31,0.4,0.58   C12.96,60.38,12.75,60.55,12.52,60.55z"/>
	<path class="st2" d="M12.52,55.44c-0.03,0-0.05,0-0.08-0.01l-8.01-1.3h0c-0.04,0-0.49-0.05-0.71-0.44c-0.17-0.3-0.17-0.6-0.17-0.66   v-3.05c0-0.28,0.22-0.5,0.5-0.5s0.5,0.22,0.5,0.5v3.06c0,0.03,0.01,0.1,0.04,0.17l8.01,1.24c0.27,0.04,0.46,0.3,0.41,0.57   C12.97,55.26,12.76,55.44,12.52,55.44z"/>
	<path class="st2" d="M12.52,49.92c-0.01,0-0.03,0-0.04,0l-8.01-0.69c-0.07,0-0.53-0.05-0.75-0.45c-0.17-0.3-0.17-0.6-0.17-0.66   v-3.05c0-0.28,0.22-0.5,0.5-0.5s0.5,0.22,0.5,0.5v3.06c0,0.03,0.01,0.1,0.04,0.17l7.97,0.62c0.27,0.02,0.48,0.27,0.46,0.54   C12.99,49.72,12.77,49.92,12.52,49.92z"/>
	<path class="st2" d="M12.56,44.11H4.05c-0.28,0-0.5-0.22-0.5-0.5s0.22-0.5,0.5-0.5h8.51c0.28,0,0.5,0.22,0.5,0.5   S12.83,44.11,12.56,44.11z"/>
	<path class="st2" d="M4.05,32.84c-0.28,0-0.5-0.22-0.5-0.5v-3.06c0-0.05,0-0.35,0.17-0.65c0.22-0.4,0.67-0.45,0.76-0.45l7.95-1.49   c0.27-0.05,0.53,0.13,0.58,0.4c0.05,0.27-0.13,0.53-0.4,0.58l-8.01,1.5c-0.04,0-0.05,0.08-0.05,0.11v3.07   C4.55,32.61,4.32,32.84,4.05,32.84z"/>
	<path class="st2" d="M4.05,37.75c-0.28,0-0.5-0.22-0.5-0.5v-3.06c0-0.05,0-0.35,0.17-0.65c0.22-0.4,0.67-0.45,0.76-0.45l7.96-1.29   c0.28-0.05,0.53,0.14,0.57,0.41c0.04,0.27-0.14,0.53-0.41,0.57l-8.01,1.3c-0.03,0-0.04,0.08-0.04,0.1v3.07   C4.55,37.53,4.32,37.75,4.05,37.75z"/>
	<path class="st2" d="M4.05,42.66c-0.28,0-0.5-0.22-0.5-0.5V39.1c0-0.05,0-0.35,0.17-0.65C3.94,38.05,4.39,38,4.48,38l8-0.69   c0.28-0.02,0.52,0.18,0.54,0.46s-0.18,0.52-0.46,0.54L4.55,39c0.01,0,0,0.08,0,0.1v3.07C4.55,42.44,4.32,42.66,4.05,42.66z"/>
	<path class="st0" d="M113.95,74.61c-0.24,0-0.45-0.17-0.49-0.41c-0.05-0.27,0.13-0.53,0.4-0.58l14.86-2.78   c0.15-0.01,0.28-0.06,0.31-0.11c0.13-0.24,0.13-0.51,0.13-0.51v-5.69c0-0.28,0.22-0.5,0.5-0.5s0.5,0.22,0.5,0.5v5.68   c0,0.04,0,0.52-0.26,1c-0.31,0.56-0.99,0.61-1.06,0.61l-14.8,2.77C114.01,74.6,113.98,74.61,113.95,74.61z"/>
	<path class="st0" d="M118.38,64.4c-0.24,0-0.45-0.17-0.49-0.42c-0.04-0.27,0.14-0.53,0.41-0.57l10.43-1.69   c0.14-0.01,0.27-0.06,0.3-0.1c0.13-0.24,0.13-0.51,0.13-0.51v-5.69c0-0.28,0.22-0.5,0.5-0.5s0.5,0.22,0.5,0.5v5.68   c0,0.04,0,0.52-0.26,1c-0.31,0.56-0.99,0.61-1.06,0.61l-10.38,1.68C118.44,64.4,118.41,64.4,118.38,64.4z"/>
	<path class="st0" d="M122.78,54.12c-0.26,0-0.48-0.2-0.5-0.46c-0.02-0.28,0.18-0.52,0.46-0.54l6.04-0.52   c0.1-0.01,0.23-0.05,0.26-0.1c0.13-0.24,0.13-0.51,0.13-0.51V46.3c0-0.28,0.22-0.5,0.5-0.5s0.5,0.22,0.5,0.5v5.68   c0,0.04,0,0.52-0.26,1c-0.31,0.56-0.99,0.61-1.06,0.61l-6.02,0.52C122.8,54.12,122.79,54.12,122.78,54.12z"/>
	<path class="st0" d="M129.66,44.11h-5.29c-0.28,0-0.5-0.22-0.5-0.5s0.22-0.5,0.5-0.5h5.29c0.28,0,0.5,0.22,0.5,0.5   S129.94,44.11,129.66,44.11z"/>
	<path class="st0" d="M129.66,23.2c-0.28,0-0.5-0.22-0.5-0.5v-5.68c0-0.01,0-0.27-0.13-0.52c-0.03-0.05-0.18-0.09-0.24-0.1   l-14.93-2.79c-0.27-0.05-0.45-0.31-0.4-0.58c0.05-0.27,0.31-0.45,0.58-0.4l14.86,2.78c0.03,0,0.69,0.05,1,0.6   c0.26,0.48,0.26,0.96,0.26,1.01v5.67C130.16,22.97,129.94,23.2,129.66,23.2z"/>
	<path class="st0" d="M129.66,32.31c-0.28,0-0.5-0.22-0.5-0.5v-5.68c0-0.01,0-0.27-0.13-0.52c-0.02-0.04-0.16-0.09-0.25-0.1   l-7.96-1.29c-0.27-0.04-0.46-0.3-0.41-0.57c0.04-0.27,0.29-0.46,0.57-0.41l7.92,1.28c-0.01-0.02,0.7,0.05,1.01,0.61   c0.26,0.48,0.26,0.96,0.26,1.01v5.67C130.16,32.08,129.94,32.31,129.66,32.31z"/>
	<path class="st0" d="M129.66,41.42c-0.28,0-0.5-0.22-0.5-0.5v-5.68c0-0.01,0-0.27-0.13-0.52c-0.02-0.04-0.16-0.09-0.25-0.1   l-4.99-0.43c-0.28-0.02-0.48-0.27-0.46-0.54c0.02-0.28,0.26-0.48,0.54-0.46l4.98,0.43c0.06,0,0.74,0.05,1.05,0.61   c0.26,0.48,0.26,0.96,0.26,1.01v5.67C130.16,41.2,129.94,41.42,129.66,41.42z"/>
	<path class="st1" d="M133.48,68.11c-0.24,0-0.45-0.17-0.49-0.41c-0.05-0.27,0.13-0.53,0.4-0.58l11.69-2.19   c0.1-0.01,0.16-0.03,0.18-0.05c0.08-0.15,0.08-0.33,0.08-0.33v-4.48c0-0.28,0.22-0.5,0.5-0.5s0.5,0.22,0.5,0.5v4.47   c0,0.03,0,0.44-0.22,0.84c-0.27,0.49-0.86,0.53-0.93,0.54l-11.63,2.18C133.54,68.1,133.51,68.11,133.48,68.11z"/>
	<path class="st1" d="M133.48,60.64c-0.24,0-0.45-0.17-0.49-0.42c-0.04-0.27,0.14-0.53,0.41-0.57l11.69-1.89   c0.09-0.01,0.15-0.03,0.17-0.04c0.08-0.15,0.08-0.33,0.08-0.33V52.9c0-0.28,0.22-0.5,0.5-0.5s0.5,0.22,0.5,0.5v4.47   c0,0.03,0,0.44-0.22,0.84c-0.27,0.49-0.86,0.53-0.92,0.54l-11.64,1.89C133.53,60.64,133.51,60.64,133.48,60.64z"/>
	<path class="st1" d="M133.48,52.59c-0.26,0-0.48-0.2-0.5-0.46c-0.02-0.28,0.18-0.52,0.46-0.54l11.69-1.01   c0.05,0,0.11-0.02,0.13-0.04c0.08-0.15,0.08-0.33,0.08-0.33v-4.48c0-0.28,0.22-0.5,0.5-0.5s0.5,0.22,0.5,0.5v4.47   c0,0.03,0,0.44-0.22,0.84c-0.27,0.49-0.86,0.53-0.93,0.54l-11.68,1.01C133.51,52.59,133.5,52.59,133.48,52.59z"/>
	<path class="st1" d="M145.85,44.11h-12.42c-0.28,0-0.5-0.22-0.5-0.5s0.22-0.5,0.5-0.5h12.42c0.28,0,0.5,0.22,0.5,0.5   S146.12,44.11,145.85,44.11z"/>
	<path class="st1" d="M145.85,27.65c-0.28,0-0.5-0.22-0.5-0.5v-4.47c0-0.01,0-0.19-0.09-0.35c-0.01,0-0.07-0.02-0.11-0.02   l-11.75-2.2c-0.27-0.05-0.45-0.31-0.4-0.58c0.05-0.27,0.32-0.45,0.58-0.4l11.69,2.19c0,0,0.59,0.04,0.86,0.53   c0.22,0.4,0.22,0.8,0.22,0.85v4.46C146.35,27.43,146.12,27.65,145.85,27.65z"/>
	<path class="st1" d="M145.85,34.82c-0.28,0-0.5-0.22-0.5-0.5v-4.47c0-0.01,0-0.19-0.09-0.35c-0.01,0-0.09-0.02-0.1-0.02l-11.75-1.9   c-0.27-0.04-0.46-0.3-0.41-0.57s0.29-0.46,0.57-0.41l11.69,1.89c0.01,0,0.6,0.04,0.87,0.53c0.22,0.4,0.22,0.8,0.22,0.85v4.46   C146.35,34.6,146.12,34.82,145.85,34.82z"/>
	<path class="st1" d="M145.85,41.99c-0.28,0-0.5-0.22-0.5-0.5v-4.47c0-0.01,0-0.19-0.09-0.35h0c-0.01,0-0.07-0.02-0.11-0.02   l-11.7-1.01c-0.27-0.02-0.48-0.27-0.46-0.54s0.26-0.48,0.54-0.46l11.69,1.01c0.05,0,0.64,0.05,0.91,0.54   c0.22,0.4,0.22,0.8,0.22,0.85v4.46C146.35,41.77,146.12,41.99,145.85,41.99z"/>
	<path class="st2" d="M149.66,60.55c-0.24,0-0.45-0.17-0.49-0.41c-0.05-0.27,0.13-0.53,0.4-0.58l8.01-1.5   c0.04,0,0.05-0.08,0.05-0.11v-3.07c0-0.28,0.22-0.5,0.5-0.5s0.5,0.22,0.5,0.5v3.06c0,0.05,0,0.35-0.17,0.65   c-0.22,0.4-0.68,0.45-0.76,0.45l-7.95,1.49C149.72,60.55,149.69,60.55,149.66,60.55z"/>
	<path class="st2" d="M149.66,55.44c-0.24,0-0.45-0.17-0.49-0.42c-0.04-0.27,0.14-0.53,0.41-0.57l8.01-1.3   c0.03,0,0.04-0.08,0.04-0.1v-3.07c0-0.28,0.22-0.5,0.5-0.5s0.5,0.22,0.5,0.5v3.06c0,0.05,0,0.35-0.17,0.65   c-0.22,0.4-0.68,0.45-0.76,0.45l-7.96,1.29C149.71,55.43,149.69,55.44,149.66,55.44z"/>
	<path class="st2" d="M149.66,49.92c-0.26,0-0.48-0.2-0.5-0.46c-0.02-0.28,0.18-0.52,0.46-0.54l8.01-0.69c-0.01,0,0-0.08,0-0.1   v-3.07c0-0.28,0.22-0.5,0.5-0.5s0.5,0.22,0.5,0.5v3.06c0,0.05,0,0.35-0.17,0.65c-0.22,0.4-0.68,0.45-0.76,0.45l-8,0.69   C149.69,49.92,149.67,49.92,149.66,49.92z"/>
	<path class="st2" d="M158.13,44.11h-8.51c-0.28,0-0.5-0.22-0.5-0.5s0.22-0.5,0.5-0.5h8.51c0.28,0,0.5,0.22,0.5,0.5   S158.4,44.11,158.13,44.11z"/>
	<path class="st2" d="M158.13,32.84c-0.28,0-0.5-0.22-0.5-0.5v-3.06c0-0.03-0.01-0.1-0.04-0.17l-8.02-1.44   c-0.27-0.05-0.45-0.31-0.4-0.58c0.05-0.27,0.32-0.45,0.58-0.4l8.01,1.5c0.02,0,0.48,0.04,0.7,0.44c0.17,0.3,0.17,0.6,0.17,0.66   v3.05C158.63,32.61,158.4,32.84,158.13,32.84z"/>
	<path class="st2" d="M158.13,37.75c-0.28,0-0.5-0.22-0.5-0.5v-3.06c0-0.03-0.01-0.1-0.04-0.17l-8.01-1.24   c-0.27-0.04-0.46-0.3-0.41-0.57c0.04-0.27,0.3-0.46,0.57-0.41l8.01,1.3c0.04,0,0.49,0.04,0.71,0.44c0.17,0.3,0.17,0.6,0.17,0.66   v3.05C158.63,37.53,158.4,37.75,158.13,37.75z"/>
	<path class="st2" d="M158.13,42.66c-0.28,0-0.5-0.22-0.5-0.5V39.1c0-0.03-0.01-0.1-0.04-0.17l-7.97-0.62   c-0.27-0.02-0.48-0.27-0.46-0.54c0.02-0.28,0.26-0.48,0.54-0.46l8.01,0.69c0.07,0,0.53,0.05,0.75,0.45c0.17,0.3,0.17,0.6,0.17,0.66   v3.05C158.63,42.44,158.4,42.66,158.13,42.66z"/>
	<g>
		<path class="st3" d="M195.5,46.49h-10.36c-0.6,0-0.71-0.23-0.71-0.6V28.21c0-0.37,0.11-0.63,0.71-0.63h10.02    c0.48,0,0.68,0.26,0.68,0.63v2.62c0,0.34,0,0.57-0.63,0.57h-6.21v3.36h5.5c0.48,0,0.65,0.17,0.65,0.54v2.62    c0,0.34,0,0.63-0.65,0.63h-5.5v4.13h6.58c0.48,0,0.6,0.23,0.6,0.6v2.62C196.18,46.24,196.18,46.49,195.5,46.49z"/>
		<path class="st3" d="M205.18,45.21c-1.14,1.08-2.5,1.51-3.56,1.51c-3.39,0-3.79-2.11-3.82-4.5v-9.17c0-0.26,0.03-0.63,0.71-0.63    h2.9c0.63,0,0.74,0.26,0.74,0.63c0,2.51-0.03,5.01-0.03,7.52c0,1.79,0.46,2.08,1.14,2.08c0.54,0,1.25-0.26,2.05-0.68v-8.94    c0-0.28,0.09-0.6,0.77-0.6h2.85c0.63,0,0.71,0.26,0.71,0.63v12.84c0,0.37-0.06,0.6-0.68,0.6h-2.99c-0.66,0-0.66-0.34-0.66-0.6    v-0.66C205.26,45.24,205.24,45.21,205.18,45.21z"/>
		<path class="st3" d="M220.93,35.42c0.08,0.71,0.03,1-0.83,1.2c-1.45,0.34-2.79,0.74-3.87,1.25v8.03c0,0.26-0.03,0.6-0.71,0.6h-2.9    c-0.63,0-0.71-0.23-0.71-0.6V33.05c0-0.37,0.09-0.63,0.71-0.63h2.9c0.68,0,0.71,0.37,0.71,0.63v1.08l0.08,0.06    c1.08-1.22,2.79-1.94,3.7-1.94c0.37,0,0.6,0.14,0.65,0.68L220.93,35.42z"/>
		<path class="st3" d="M227.53,46.72c-5.55,0-5.95-4.3-5.95-7.46c0-2.5,0.57-7.09,5.95-7.09c5.35,0,6.15,3.82,6.15,7.09    C233.68,42.42,233.23,46.72,227.53,46.72z M227.59,35.9c-1.31,0-1.62,1.28-1.62,3.53c0,2.45,0.31,3.56,1.57,3.56    c1.42,0,1.74-1.2,1.74-3.56C229.27,37.1,229.01,35.9,227.59,35.9z"/>
		<path class="st3" d="M248.43,46.49h-3.08c-0.68,0-0.77-0.23-0.77-0.6v-7.29h-4.19v7.29c0,0.26-0.03,0.6-0.71,0.6h-3.13    c-0.6,0-0.71-0.23-0.71-0.6V28.21c0-0.37,0.11-0.63,0.71-0.63h3.13c0.68,0,0.71,0.34,0.71,0.63v6.55h4.19v-6.55    c0-0.37,0.09-0.63,0.77-0.63h3.08c0.71,0,0.74,0.34,0.74,0.63v17.68C249.17,46.15,249.14,46.49,248.43,46.49z"/>
		<path class="st3" d="M258.37,39.57h-1.91v6.32c0,0.26-0.03,0.6-0.71,0.6h-3.13c-0.63,0-0.74-0.23-0.74-0.6V28.21    c0-0.37,0.11-0.63,0.74-0.63h4.64c3.82,0,7.15,1.22,7.15,5.89C264.41,36.1,263.35,39.57,258.37,39.57z M257.8,31.4h-1.34v4.47    h1.39c1.25,0,1.91-0.77,1.91-2.28C259.77,32.09,259.02,31.4,257.8,31.4z"/>
		<path class="st3" d="M273.2,27.36c1.65,0,3.53,0.29,4.81,0.91c0.57,0.29,0.91,0.63,0.83,1.25l-0.31,1.65    c-0.11,0.57-0.37,0.68-1.17,0.57c-1.37-0.14-2.96-0.26-3.79-0.26c-2.5,0-3.02,2.45-3.02,5.55c0,3.56,0.54,5.64,3.02,5.64    c1.2,0,2.19-0.08,3.84-0.26c0.83-0.09,1.03,0.06,1.17,0.57l0.34,1.51c0.14,0.66-0.23,1.03-0.8,1.31    c-1.28,0.63-3.22,0.94-4.93,0.94c-6.21,0-7.49-4.9-7.49-9.65C265.72,32.46,266.94,27.36,273.2,27.36z"/>
	</g>
	<g>
		<path class="st2" d="M186.19,59.81c-0.55,0-1.35-0.1-1.87-0.35c-0.21-0.11-0.23-0.23-0.18-0.41l0.14-0.65    c0.04-0.2,0.11-0.21,0.34-0.18c0.5,0.06,0.98,0.11,1.36,0.11c0.87,0,1.11-0.47,1.11-1.28v-6.5c0-0.18,0.07-0.27,0.31-0.27h1.02    c0.26,0,0.31,0.1,0.31,0.27v6.75C188.71,58.87,187.96,59.81,186.19,59.81z"/>
		<path class="st2" d="M192.83,59.8c-2.57,0-2.75-2.04-2.75-3.7c0-1.24,0.23-3.51,2.75-3.51c2.53,0,2.82,1.86,2.82,3.51    C195.66,57.75,195.47,59.8,192.83,59.8z M192.85,53.95c-0.96,0-1.18,0.79-1.18,2.24c0,1.49,0.21,2.24,1.16,2.24    c1.02,0,1.23-0.75,1.23-2.24C194.07,54.72,193.87,53.95,192.85,53.95z"/>
		<path class="st2" d="M197.65,51.72c-0.72,0-0.82-0.41-0.82-0.84c0-0.45,0.17-0.81,0.82-0.81c0.71,0,0.85,0.33,0.85,0.81    C198.5,51.32,198.37,51.72,197.65,51.72z M198.13,59.68h-0.94c-0.24,0-0.33-0.08-0.33-0.27V53c0-0.18,0.08-0.27,0.33-0.27h0.94    c0.24,0,0.3,0.11,0.3,0.27v6.41C198.43,59.57,198.37,59.68,198.13,59.68z"/>
		<path class="st2" d="M201.34,53.33c0.48-0.37,1.25-0.72,1.9-0.72c1.8,0,1.94,1.26,1.94,2.7v4.12c0,0.16-0.06,0.27-0.3,0.27h-0.99    c-0.21,0-0.3-0.08-0.3-0.27c0-0.6,0.01-3.52,0.01-4.1c0-1.01-0.25-1.26-0.79-1.26c-0.45,0-1.11,0.28-1.55,0.51v4.85    c0,0.16-0.06,0.27-0.3,0.27h-0.98c-0.23,0-0.28-0.08-0.28-0.27V53c0-0.18,0.06-0.27,0.28-0.27h0.99c0.21,0,0.28,0.1,0.28,0.27v0.3    L201.34,53.33z"/>
		<path class="st2" d="M210.24,59.07c0.04,0.24-0.07,0.34-0.2,0.41c-0.47,0.24-1.18,0.31-1.6,0.31c-1.32,0-1.69-0.67-1.69-1.75    v-4.06h-0.55c-0.23,0-0.28-0.08-0.28-0.28v-0.7c0-0.2,0.06-0.28,0.28-0.28h0.57v-1.48c0-0.18,0.13-0.25,0.3-0.3l0.89-0.27    c0.21-0.06,0.34,0.01,0.34,0.24v1.8h1.26c0.26,0,0.27,0.1,0.27,0.28v0.68c0,0.2-0.01,0.3-0.27,0.3h-1.28v3.46    c0,0.74,0.13,0.92,0.68,0.92c0.16,0,0.57-0.04,0.82-0.07c0.28-0.03,0.34,0.03,0.37,0.23L210.24,59.07z"/>
		<path class="st2" d="M219.05,56.26v-5.71c0-0.2,0.07-0.28,0.33-0.28h0.96c0.27,0,0.33,0.1,0.33,0.28v5.8    c0,2.09-0.98,3.43-3.18,3.43c-2.31,0-3.15-1.42-3.15-3.43v-5.8c0-0.2,0.07-0.28,0.34-0.28h0.96c0.27,0,0.33,0.1,0.33,0.28v5.71    c0,1.46,0.44,2.07,1.52,2.07C218.56,58.34,219.05,57.7,219.05,56.26z"/>
		<path class="st2" d="M223.53,53.33c0.48-0.37,1.25-0.72,1.9-0.72c1.8,0,1.94,1.26,1.94,2.7v4.12c0,0.16-0.06,0.27-0.3,0.27h-0.99    c-0.21,0-0.3-0.08-0.3-0.27c0-0.6,0.01-3.52,0.01-4.1c0-1.01-0.25-1.26-0.79-1.26c-0.45,0-1.11,0.28-1.55,0.51v4.85    c0,0.16-0.06,0.27-0.3,0.27h-0.98c-0.23,0-0.28-0.08-0.28-0.27V53c0-0.18,0.06-0.27,0.28-0.27h0.99c0.21,0,0.28,0.1,0.28,0.27v0.3    L223.53,53.33z"/>
		<path class="st2" d="M232.3,52.79v-2.82c0-0.18,0.07-0.28,0.33-0.28h0.95c0.26,0,0.28,0.11,0.28,0.28v9.45    c0,0.14-0.07,0.27-0.28,0.27h-0.99c-0.21,0-0.28-0.08-0.28-0.27v-0.27c0,0-0.03-0.01-0.04-0.01c-0.45,0.31-1.19,0.65-1.83,0.65    c-1.69,0-2.11-1.32-2.11-3.46c0-2.31,0.47-3.73,2.54-3.73c0.37,0,0.91,0.07,1.42,0.24L232.3,52.79z M230.8,58.34    c0.44,0,1.16-0.27,1.5-0.48v-3.69c-0.52-0.16-0.98-0.2-1.28-0.2c-0.81,0-1.12,0.55-1.12,2.31    C229.9,58.06,230.24,58.34,230.8,58.34z"/>
		<path class="st2" d="M234.87,56.23c0-1.38,0.21-3.65,2.75-3.65c2.31,0,2.71,1.65,2.72,3.18c0,0.54-0.14,0.87-0.71,0.87h-3.15    c0.04,1.39,0.47,1.79,1.39,1.79c0.45,0,1.06-0.06,1.59-0.13c0.21-0.03,0.38-0.04,0.43,0.2l0.08,0.5c0.04,0.2-0.01,0.33-0.21,0.43    c-0.51,0.24-1.43,0.4-2.09,0.4C235.24,59.81,234.87,58.11,234.87,56.23z M236.49,55.55h2.24c-0.03-0.92-0.2-1.69-1.12-1.69    C236.85,53.86,236.53,54.39,236.49,55.55z"/>
		<path class="st2" d="M245.25,53.79c0.03,0.24-0.01,0.35-0.28,0.42c-0.77,0.18-1.5,0.43-1.93,0.64v4.56c0,0.16-0.06,0.27-0.3,0.27    h-0.99c-0.21,0-0.28-0.08-0.28-0.27V53c0-0.18,0.07-0.27,0.28-0.27h0.98c0.26,0,0.31,0.11,0.31,0.27v0.54l0.03,0.03    c0.44-0.44,1.25-0.84,1.82-0.92c0.18-0.01,0.27,0.04,0.28,0.26L245.25,53.79z"/>
		<path class="st2" d="M249.72,59.07c0.04,0.24-0.07,0.34-0.2,0.41c-0.47,0.24-1.18,0.31-1.6,0.31c-1.32,0-1.69-0.67-1.69-1.75    v-4.06h-0.55c-0.23,0-0.28-0.08-0.28-0.28v-0.7c0-0.2,0.06-0.28,0.28-0.28h0.57v-1.48c0-0.18,0.13-0.25,0.3-0.3l0.89-0.27    c0.21-0.06,0.34,0.01,0.34,0.24v1.8h1.26c0.25,0,0.27,0.1,0.27,0.28v0.68c0,0.2-0.01,0.3-0.27,0.3h-1.28v3.46    c0,0.74,0.13,0.92,0.68,0.92c0.16,0,0.57-0.04,0.82-0.07c0.28-0.03,0.34,0.03,0.37,0.23L249.72,59.07z"/>
		<path class="st2" d="M250.06,57.78c0-1.67,0.84-2.37,2.47-2.37h1.43V55.1c0-0.81-0.33-1.16-1.22-1.16c-0.47,0-1.19,0.07-1.79,0.14    c-0.18,0.03-0.25-0.03-0.28-0.2l-0.11-0.53c-0.03-0.16,0-0.28,0.18-0.37c0.54-0.27,1.63-0.4,2.24-0.4c2.21,0,2.54,1.06,2.54,2.67    v2.65c0,0.55,0,0.61,0.38,0.64c0.24,0.03,0.3,0.07,0.3,0.21v0.55c0,0.14-0.04,0.27-0.24,0.33c-0.18,0.07-0.43,0.1-0.71,0.1    c-0.7,0-1.04-0.2-1.16-0.72c-0.01,0-0.03-0.01-0.04-0.01c-0.6,0.47-1.38,0.79-2.17,0.79C250.49,59.8,250.06,58.97,250.06,57.78z     M253.95,56.55h-1.32c-0.54,0-0.96,0.25-0.96,1.16c0,0.6,0.17,0.79,0.67,0.79c0.5,0,1.21-0.35,1.62-0.64V56.55z"/>
		<path class="st2" d="M258.52,57.84v1.59c0,0.16-0.06,0.26-0.3,0.26h-0.98c-0.21,0-0.28-0.07-0.28-0.26v-9.48    c0-0.18,0.07-0.27,0.28-0.27h0.98c0.24,0,0.3,0.11,0.3,0.27v5.62c0.01,0,0.01,0.01,0.03,0.01c0.78-1.25,1.13-1.75,1.73-2.61    c0.11-0.16,0.2-0.24,0.5-0.24h1.09c0.2,0,0.26,0.17,0.14,0.33l-1.82,2.5l2.07,3.82c0.1,0.14,0.01,0.31-0.18,0.31h-1.06    c-0.38,0-0.45-0.24-0.61-0.53l-1.19-2.28C258.98,57.18,258.75,57.51,258.52,57.84z"/>
		<path class="st2" d="M263.88,51.72c-0.72,0-0.82-0.41-0.82-0.84c0-0.45,0.17-0.81,0.82-0.81c0.71,0,0.85,0.33,0.85,0.81    C264.73,51.32,264.6,51.72,263.88,51.72z M264.36,59.68h-0.94c-0.24,0-0.33-0.08-0.33-0.27V53c0-0.18,0.08-0.27,0.33-0.27h0.94    c0.24,0,0.3,0.11,0.3,0.27v6.41C264.66,59.57,264.6,59.68,264.36,59.68z"/>
		<path class="st2" d="M267.57,53.33c0.48-0.37,1.25-0.72,1.9-0.72c1.8,0,1.94,1.26,1.94,2.7v4.12c0,0.16-0.06,0.27-0.3,0.27h-0.99    c-0.21,0-0.3-0.08-0.3-0.27c0-0.6,0.01-3.52,0.01-4.1c0-1.01-0.25-1.26-0.79-1.26c-0.45,0-1.11,0.28-1.55,0.51v4.85    c0,0.16-0.06,0.27-0.3,0.27h-0.98c-0.23,0-0.28-0.08-0.28-0.27V53c0-0.18,0.06-0.27,0.28-0.27h0.99c0.21,0,0.28,0.1,0.28,0.27v0.3    L267.57,53.33z"/>
		<path class="st2" d="M277.56,52.97c0.35,0.13,0.4,0.38,0.4,0.64v5.96c0,1.66-0.26,2.88-2.71,2.88c-0.62,0-1.48-0.1-2.04-0.33    c-0.28-0.13-0.31-0.25-0.28-0.43l0.1-0.54c0.04-0.24,0.13-0.25,0.43-0.2c0.61,0.1,1.32,0.14,1.72,0.14c0.96,0,1.23-0.37,1.23-1.23    v-0.41c-0.58,0.23-1.05,0.3-1.42,0.3c-2.14,0-2.58-1.42-2.58-3.52c0-2.23,0.62-3.65,2.84-3.65    C276.02,52.59,276.97,52.71,277.56,52.97z M275.11,58.36c0.33,0,0.79-0.09,1.28-0.24v-3.99c-0.34-0.07-0.72-0.11-1.08-0.11    c-0.71,0-1.29,0.26-1.29,2.09C274.01,57.85,274.33,58.36,275.11,58.36z"/>
	</g>
</g>
<g id="Layer_2">
	<g>
		<polygon class="st4" points="80.81,5.18 79.55,8.85 75.88,8.85 78.72,11.27 77.97,14.53 80.81,12.52 83.64,14.53 82.89,11.27     85.73,8.85 82.05,8.85   "/>
		<polygon class="st4" points="80.81,70.51 79.55,74.18 75.88,74.18 78.72,76.61 77.97,79.86 80.81,77.86 83.64,79.86 82.89,76.61     85.73,74.18 82.05,74.18   "/>
		<polygon class="st4" points="47.89,37.84 46.63,41.51 42.96,41.51 45.8,44.02 45.04,47.28 47.89,45.19 50.81,47.28 49.97,44.02     52.82,41.51 49.14,41.51   "/>
		<polygon class="st4" points="113.72,37.84 112.46,41.51 108.79,41.51 111.63,44.02 110.8,47.28 113.72,45.19 116.57,47.28     115.81,44.02 118.65,41.51 114.98,41.51   "/>
		<polygon class="st4" points="64.34,10.1 63.09,13.78 59.42,13.78 62.26,16.2 61.5,19.46 64.34,17.45 67.27,19.46 66.43,16.2     69.28,13.78 65.6,13.78   "/>
		<polygon class="st4" points="97.27,10.1 96.01,13.78 92.33,13.78 95.17,16.2 94.34,19.46 97.27,17.45 100.1,19.46 99.36,16.2     102.19,13.78 98.52,13.78   "/>
		<polygon class="st4" points="64.34,65.58 63.09,69.25 59.42,69.25 62.26,71.68 61.5,74.94 64.34,72.93 67.27,74.94 66.43,71.68     69.28,69.25 65.6,69.25   "/>
		<polygon class="st4" points="97.27,65.58 96.01,69.25 92.33,69.25 95.17,71.68 94.34,74.94 97.27,72.93 100.1,74.94 99.36,71.68     102.19,69.25 98.52,69.25   "/>
		<polygon class="st4" points="52.82,21.55 51.56,25.23 47.89,25.23 50.81,27.64 49.97,30.91 52.82,28.9 55.74,30.91 54.9,27.64     57.75,25.23 54.07,25.23   "/>
		<polygon class="st4" points="108.79,21.55 107.54,25.23 103.86,25.23 106.7,27.64 105.87,30.91 108.79,28.9 111.63,30.91     110.8,27.64 113.72,25.23 110.05,25.23   "/>
		<polygon class="st4" points="52.82,54.21 51.56,57.81 47.89,57.81 50.81,60.23 49.97,63.49 52.82,61.48 55.74,63.49 54.9,60.23     57.75,57.81 54.07,57.81   "/>
		<polygon class="st4" points="108.79,54.21 107.54,57.81 103.86,57.81 106.7,60.23 105.87,63.49 108.79,61.48 111.63,63.49     110.8,60.23 113.72,57.81 110.05,57.81   "/>
	</g>
</g>
</svg>