<?xml version="1.0" encoding="UTF-8" standalone="no"?>
<svg
   xmlns:dc="http://purl.org/dc/elements/1.1/"
   xmlns:cc="http://creativecommons.org/ns#"
   xmlns:rdf="http://www.w3.org/1999/02/22-rdf-syntax-ns#"
   xmlns:svg="http://www.w3.org/2000/svg"
   xmlns="http://www.w3.org/2000/svg"
   xmlns:sodipodi="http://sodipodi.sourceforge.net/DTD/sodipodi-0.dtd"
   xmlns:inkscape="http://www.inkscape.org/namespaces/inkscape"
   inkscape:version="1.0 (4035a4fb49, 2020-05-01)"
   sodipodi:docname="github.svg"
   viewBox="0 0 240 240"
   height="240"
   width="240"
   id="svg2366"
   version="1.1">
  <metadata
     id="metadata2372">
    <rdf:RDF>
      <cc:Work
         rdf:about="">
        <dc:format>image/svg+xml</dc:format>
        <dc:type
           rdf:resource="http://purl.org/dc/dcmitype/StillImage" />
        <dc:title></dc:title>
      </cc:Work>
    </rdf:RDF>
  </metadata>
  <defs
     id="defs2370" />
  <sodipodi:namedview
     inkscape:current-layer="g2374"
     inkscape:window-maximized="0"
     inkscape:window-y="42"
     inkscape:window-x="0"
     inkscape:cy="120"
     inkscape:cx="56.489796"
     inkscape:zoom="3.0625"
     showgrid="false"
     id="namedview2368"
     inkscape:window-height="1037"
     inkscape:window-width="1918"
     inkscape:pageshadow="2"
     inkscape:pageopacity="0"
     guidetolerance="10"
     gridtolerance="10"
     objecttolerance="10"
     borderopacity="1"
     bordercolor="#666666"
     pagecolor="#ffffff" />
  <g
     id="g2374"
     inkscape:label="Image"
     inkscape:groupmode="layer">
    <path
       id="path2939"
       d="M 74.926374,231.11423 C 25.894347,210.64079 -4.434332,160.78616 0.787521,109.24394 5.127697,66.404285 29.376647,31.226976 67.5,12.465909 113.43913,-10.141419 168.16241,-0.97203163 204.56722,35.432781 263.49987,94.365436 246.06096,192.83348 170.33853,228.70353 158.55874,234.28367 154.9573,234.9573 152.11257,232.11257 150.09763,230.09763 150,229.03686 150,209.15893 c 0,-22.10559 -0.75764,-27.20108 -4.91194,-33.03526 l -2.15127,-3.02119 3.7816,-0.63455 c 29.5966,-4.9663 44.4773,-18.37957 48.96496,-44.1364 2.84809,-16.34653 0.58498,-30.209265 -6.71677,-41.143726 -3.82717,-5.731232 -3.96881,-6.217367 -3.01563,-10.350738 0.55009,-2.385386 1.01116,-6.605022 1.0246,-9.376967 0.0256,-5.271078 -2.43244,-16.312719 -3.97553,-17.858512 -2.24089,-2.244807 -21.64441,4.448695 -29.86515,10.302378 -2.59578,1.848359 -2.97114,1.860567 -9.17072,0.298269 -9.07024,-2.285709 -37.87491,-2.281195 -46.96016,0.0074 l -6.49601,1.63629 -5.74231,-3.488274 C 73.336291,51.414672 59.582477,47.306727 57.337025,50.165353 c -2.94124,3.744416 -4.412809,20.596813 -2.40872,27.58466 0.820528,2.861014 0.490015,3.905156 -2.846771,8.993399 -6.016986,9.175261 -7.324846,13.482778 -7.820287,25.756588 -1.352323,33.50173 13.44255,52.89503 45.097803,59.11474 l 8.56784,1.68344 -2.35884,2.80331 c -1.29735,1.54182 -2.94315,5.08321 -3.65732,7.86975 -1.25545,4.89852 -1.46379,5.11552 -6.28611,6.54759 -2.74319,0.81465 -6.818447,1.47677 -9.056121,1.4714 -5.682138,-0.0136 -13.738,-4.02221 -17.192626,-8.55499 C 49.767475,170.82817 44.555755,167 37.000734,167 c -5.673526,0 -6.516701,2.52225 -1.987839,5.94635 6.071877,4.59072 9.829614,9.2172 13.469149,16.58304 4.240703,8.58252 6.758002,11.49692 12.641657,14.63585 3.900886,2.08113 5.707093,2.33476 16.626599,2.33476 h 12.2503 l -3e-4,12.1933 c -2.8e-4,11.46641 -0.13279,12.28609 -2.22281,13.75 -3.01015,2.10839 -5.1483,1.88726 -12.851116,-1.32907 z"
       style="fill:#000000" />
  </g>
</svg>
