<?xml version="1.0" encoding="UTF-8" standalone="no"?>
<svg
   xmlns:dc="http://purl.org/dc/elements/1.1/"
   xmlns:cc="http://creativecommons.org/ns#"
   xmlns:rdf="http://www.w3.org/1999/02/22-rdf-syntax-ns#"
   xmlns:svg="http://www.w3.org/2000/svg"
   xmlns="http://www.w3.org/2000/svg"
   xmlns:sodipodi="http://sodipodi.sourceforge.net/DTD/sodipodi-0.dtd"
   xmlns:inkscape="http://www.inkscape.org/namespaces/inkscape"
   inkscape:version="1.0 (4035a4fb49, 2020-05-01)"
   sodipodi:docname="link.svg"
   viewBox="0 0 472.61539 472.61539"
   height="472.61539"
   width="472.61539"
   id="svg1533"
   version="1.1">
  <metadata
     id="metadata1539">
    <rdf:RDF>
      <cc:Work
         rdf:about="">
        <dc:format>image/svg+xml</dc:format>
        <dc:type
           rdf:resource="http://purl.org/dc/dcmitype/StillImage" />
        <dc:title></dc:title>
      </cc:Work>
    </rdf:RDF>
  </metadata>
  <defs
     id="defs1537" />
  <sodipodi:namedview
     inkscape:current-layer="g1541"
     inkscape:window-maximized="0"
     inkscape:window-y="42"
     inkscape:window-x="0"
     inkscape:cy="236.30769"
     inkscape:cx="111.24144"
     inkscape:zoom="1.5551758"
     showgrid="false"
     id="namedview1535"
     inkscape:window-height="1037"
     inkscape:window-width="1918"
     inkscape:pageshadow="2"
     inkscape:pageopacity="0"
     guidetolerance="10"
     gridtolerance="10"
     objecttolerance="10"
     borderopacity="1"
     bordercolor="#666666"
     pagecolor="#ffffff" />
  <g
     id="g1541"
     inkscape:label="Image"
     inkscape:groupmode="layer">
    <path
       id="path2162"
       d="M 105.23077,471.55391 C 78.43539,468.7666 52.1173,455.79869 33.17206,436.04789 -1.649397,399.7458 -9.773635,345.58861 12.854331,300.60736 20.6808,285.04942 23.03316,282.41436 81.64199,223.5531 c 30.99691,-31.13041 59.2657,-58.78886 62.81955,-61.46322 37.06601,-27.89308 85.05103,-32.2288 126.06282,-11.39049 10.40926,5.289 18.16713,10.61075 25.10539,17.22182 l 4.39898,4.19153 -25.08241,25.09486 -25.0824,25.09485 -4.70119,-3.50533 c -5.89202,-4.39324 -8.81077,-5.84635 -15.77811,-7.85521 -12.37668,-3.5685 -28.31353,-1.118 -38.86463,5.97595 -5.87445,3.94965 -103.44191,101.12577 -109.22489,108.7868 -17.42739,23.08701 -9.86953,56.85411 15.62798,69.82285 13.58893,6.9117 29.68753,6.83275 43.84615,-0.21504 3.34728,-1.66619 11.64059,-9.28291 30.18419,-27.72167 l 25.5688,-25.42425 11.81582,4.30383 c 27.15863,9.89236 39.83434,10.74608 69.3687,4.67204 6.26947,-1.28939 11.54264,-2.20073 11.71815,-2.02522 0.17553,0.17552 -21.36173,22.17342 -47.86058,48.88423 -40.19524,40.51679 -49.48471,49.41507 -56.05443,53.69397 -18.21336,11.86245 -34.89301,17.8883 -55.22306,19.95038 -10.72111,1.08745 -13.82835,1.07605 -25.05605,-0.0919 z M 240.58594,334.02958 c -18.48356,-2.37366 -39.37608,-10.55476 -53.56228,-20.97395 -7.86538,-5.7768 -14.40729,-11.49808 -14.40782,-12.6005 -2.5e-4,-0.51121 11.1561,-12.0803 24.79189,-25.70908 l 24.79235,-24.77959 4.42366,3.37666 c 15.28022,11.66366 33.791,13.25206 51.68396,4.43498 3.56472,-1.75658 16.92257,-14.55597 58.67853,-56.22529 35.13965,-35.06674 55.09907,-55.66022 57.0227,-58.83421 8.15714,-13.45921 8.68259,-31.67965 1.33191,-46.185504 -3.03888,-5.99697 -13.25436,-16.220824 -19.19265,-19.208412 -10.60468,-5.335277 -24.40393,-6.868317 -34.67296,-3.852026 -11.48053,3.372147 -14.73963,5.92518 -42.08177,32.965002 l -25.99115,25.70378 -8.82397,-3.30497 c -24.73532,-9.26445 -51.33136,-11.19459 -76.61776,-5.56033 -3.49091,0.77784 -6.49133,1.27002 -6.66761,1.09374 -0.17628,-0.17627 21.9953,-22.54153 49.27019,-49.700584 51.87697,-51.656653 54.84034,-54.260443 70.5747,-62.010957 32.90348,-16.2077684 72.10594,-16.3866962 104.52586,-0.477078 68.17252,33.454696 88.12216,120.425419 41.22288,179.711699 -3.05871,3.86657 -30.40178,31.79523 -60.7624,62.06371 -58.46188,58.28445 -60.73746,60.29495 -77.77746,68.71729 -20.46325,10.11434 -45.17654,14.25589 -67.7608,11.35562 z"
       style="fill:#000000;stroke-width:0.923077" />
  </g>
</svg>
