<!-- Created with Inkscape (http://www.inkscape.org/) -->
<svg width="493.24" height="200" version="1.1" viewBox="0 0 493.24 200" xmlns="http://www.w3.org/2000/svg">
 <g transform="matrix(1.3333 0 0 -1.3333 -31.654 206.88)">
  <g transform="matrix(2.9875 0 0 2.9875 -47.184 -308.38)">
   <g fill="#231f20">
    <path d="m45.569 124.38c0-0.734-0.433-1.068-0.965-1.068-0.528 0-0.941 0.354-0.941 1.132v0.503h-1.453v0.482h3.359zm-1.473 0.567v-0.547c0-0.36 0.192-0.591 0.528-0.591 0.245 0 0.512 0.133 0.512 0.571v0.567h-1.04"/>
    <path d="m42.21 119.38v0.493l0.99 0.448v1.429l-0.99 0.424v0.492l3.379-1.443v-0.34zm1.423 2.183v-1.044l1.217 0.541z"/>
    <path d="m45.569 117.17c0-0.68-0.36-1.103-0.941-1.103-0.389 0-0.68 0.202-0.822 0.561-0.202-0.305-0.513-0.493-0.931-0.749-0.232-0.143-0.345-0.226-0.665-0.458v0.576l0.689 0.444c0.69 0.443 0.769 0.645 0.769 0.891v0.202h-1.458v0.483h3.359zm-1.468 0.364v-0.31c0-0.517 0.267-0.665 0.547-0.66 0.315 5e-3 0.507 0.192 0.507 0.66v0.31h-1.054"/>
    <path d="m42.21 113.58v0.483h3.359v-0.483z"/>
    <path d="m44.831 110.26c0.27 0.285 0.349 0.562 0.349 0.788 0 0.31-0.162 0.532-0.399 0.532-0.645 0-0.635-1.454-1.704-1.454-0.527 0-0.911 0.4-0.911 0.942 0 0.364 0.099 0.659 0.31 0.94h0.611c-0.315-0.246-0.488-0.556-0.488-0.886 0-0.375 0.237-0.547 0.423-0.547 0.695 0 0.775 1.453 1.695 1.453 0.547 0 0.897-0.404 0.897-1.02 0-0.256-0.079-0.512-0.236-0.748h-0.547"/>
    <path d="m42.165 106.47 0.187 0.429 2.759-1.231v1.453h0.458v-2.173z"/>
   </g>
   <path d="m66.843 112.83v12.599h3.14v-12.599z" fill="#d80f46"/>
   <g fill="#231f20">
    <path d="m55.78 125.43c4.599 0 6.964-2.863 6.964-6.318 0-3.621-2.29-6.28-7.315-6.28h-5.21v12.598zm-2.42-10.289h2.05c3.16 0 4.101 2.142 4.101 3.99 0 2.161-1.163 3.99-4.137 3.99h-2.014v-7.98"/>
    <path d="m80.505 125.43c4.599 0 6.964-2.863 6.964-6.318 0-3.621-2.291-6.28-7.315-6.28h-5.21v12.598zm-2.42-10.289h2.051c3.158 0 4.1 2.142 4.1 3.99 0 2.161-1.164 3.99-4.138 3.99h-2.013v-7.98"/>
    <path d="m100.48 112.83h-9.292v12.598h9.163v-2.309h-6.022v-2.641h5.745v-2.309h-5.745v-3.03h6.151z"/>
    <path d="m110.94 125.43c2.587 0 4.12-1.737 4.12-3.621 0-1.385-0.721-2.42-2.161-3.084 1.293-0.647 1.68-2.199 3.454-5.893h-3.454c-1.349 2.696-1.848 5.116-3.548 5.116h-0.905v-5.116h-3.14v12.598zm-2.494-5.173h1.663c0.868 0 1.718 0.37 1.718 1.441 0 0.942-0.61 1.423-1.792 1.423h-1.589v-2.864"/>
    <path d="m126.12 112.66c-4.618 0-7.223 3.252-7.223 6.466 0 3.048 2.475 6.465 7.223 6.465s7.205-3.436 7.205-6.465c0-3.233-2.679-6.466-7.205-6.466m0 10.308c-2.401 0-3.99-1.533-3.99-3.842 0-2.31 1.589-3.842 3.99-3.842 2.383 0 3.972 1.532 3.972 3.842 0 2.309-1.589 3.842-3.972 3.842"/>
    <path d="m147.57 123.12h-4.562v-10.289h-3.141v10.289h-4.563v2.309h12.266z"/>
    <path d="m70.188 129.37c0-0.964-0.782-1.746-1.746-1.746s-1.746 0.782-1.746 1.746 0.782 1.746 1.746 1.746 1.746-0.782 1.746-1.746"/>
   </g>
   <path d="m66.843 133.31v12.599h3.14v-12.599z" fill="#d80f46"/>
   <g fill="#231f20">
    <path d="m29.356 145.91c2.882 0 4.176-2.013 4.176-3.731 0-1.774-1.257-3.806-4.157-3.806h-2.494v-5.062h-3.14v12.599zm-2.475-5.227h1.459c1.442 0 1.959 0.517 1.959 1.459 0 1.071-0.61 1.459-2.309 1.459h-1.109v-2.918"/>
    <path d="m48.703 133.31h-3.381l-1.034 2.494h-5.635l-0.941-2.494h-3.326l5.081 12.599h3.639zm-7.371 9.588-1.848-4.896h3.88z"/>
    <path d="m57.828 145.91c2.587 0 4.12-1.736 4.12-3.621 0-1.385-0.721-2.419-2.161-3.084 1.293-0.647 1.68-2.199 3.454-5.894h-3.454c-1.349 2.697-1.848 5.118-3.548 5.118h-0.905v-5.118h-3.14v12.599zm-2.494-5.172h1.662c0.869 0 1.719 0.369 1.719 1.441 0 0.942-0.61 1.422-1.792 1.422h-1.589v-2.863"/>
    <path d="m83.376 142.64c-1.829 0.813-2.919 1.127-3.99 1.127-1.127 0-1.848-0.407-1.848-1.034 0-1.904 6.41-1.368 6.41-5.764 0-2.42-2.031-3.824-4.839-3.824-2.199 0-3.288 0.572-4.545 1.219v2.715c1.811-1.2 2.919-1.625 4.304-1.625 1.202 0 1.848 0.425 1.848 1.164 0 2.069-6.411 1.311-6.411 5.837 0 2.18 1.885 3.621 4.804 3.621 1.403 0 2.678-0.296 4.267-0.979v-2.457"/>
   </g>
   <g fill="#231f20">
    <path d="m78.38 149.92v0.456c-0.296-0.319-0.712-0.528-1.064-0.528-0.729 0-1.241 0.521-1.241 1.433v2.233h0.713v-2.281c0-0.504 0.247-0.792 0.736-0.792 0.32 0 0.624 0.175 0.856 0.504v2.569h0.713v-3.594h-0.713"/>
    <path d="m81.598 153.05h0.016c0.272 0.344 0.673 0.544 1.073 0.544 0.68 0 1.224-0.464 1.224-1.448v-2.218h-0.712v2.225c0 0.529-0.272 0.873-0.704 0.873-0.312 0-0.561-0.144-0.897-0.52v-2.578h-0.712v3.594h0.712v-0.472"/>
    <path d="m86.081 154.18c-0.232 0-0.424 0.192-0.424 0.425 0 0.232 0.192 0.423 0.424 0.423s0.425-0.191 0.425-0.423c0-0.233-0.193-0.425-0.425-0.425m-0.36-4.259v3.594h0.713v-3.594z"/>
    <path d="m87.778 153.52h0.776l0.969-2.209 0.945 2.209h0.76l-1.585-3.666h-0.24z"/>
    <path d="m95.408 150.28c-0.432-0.288-0.824-0.425-1.433-0.425-1.121 0-1.745 0.921-1.745 1.914 0 1.088 0.688 1.825 1.681 1.825 0.953 0 1.561-0.648 1.561-1.977h-2.529c0.112-0.713 0.52-1.081 1.208-1.081 0.433 0 0.841 0.16 1.257 0.433zm-0.64 1.809c-0.024 0.545-0.336 0.889-0.841 0.889-0.544 0-0.872-0.32-0.969-0.889h1.81"/>
    <path d="m97.802 153.52v-0.824h0.016c0.36 0.632 0.704 0.896 1.04 0.896 0.289 0 0.561-0.136 0.857-0.416l-0.376-0.616c-0.216 0.208-0.496 0.352-0.664 0.352-0.489 0-0.873-0.488-0.873-1.105v-1.881h-0.713v3.594h0.713"/>
    <path d="m103.1 152.59c-0.401 0.264-0.777 0.376-1.041 0.376-0.288 0-0.472-0.135-0.472-0.328 0-0.16 0.24-0.352 0.873-0.72 0.592-0.392 0.808-0.641 0.808-1.009 0-0.632-0.505-1.057-1.185-1.057-0.44 0-0.784 0.089-1.249 0.328v0.769c0.465-0.32 0.889-0.472 1.177-0.472 0.288 0.016 0.528 0.152 0.528 0.408 0 0.496-1.681 0.76-1.681 1.729 0 0.609 0.465 0.977 1.185 0.977 0.336 0 0.68-0.097 1.057-0.296v-0.705"/>
    <path d="m105.27 154.18c-0.232 0-0.424 0.192-0.424 0.425 0 0.232 0.192 0.423 0.424 0.423s0.425-0.191 0.425-0.423c0-0.233-0.193-0.425-0.425-0.425m-0.36-4.259v3.594h0.712v-3.594z"/>
    <path d="m108.28 153.52h1.137v-0.64h-1.137v-1.841c0-0.425 0.304-0.545 0.512-0.545 0.256 0 0.521 0.088 0.809 0.265v-0.665c-0.248-0.136-0.633-0.24-0.865-0.24-0.776 0-1.168 0.48-1.168 1.128v1.898h-0.625v0.08l1.337 1.304v-0.744"/>
    <path d="m113.92 150.28c-0.433-0.288-0.825-0.425-1.433-0.425-1.121 0-1.745 0.921-1.745 1.914 0 1.088 0.688 1.825 1.681 1.825 0.953 0 1.561-0.648 1.561-1.977h-2.53c0.112-0.713 0.52-1.081 1.209-1.081 0.432 0 0.841 0.16 1.257 0.433zm-0.64 1.809c-0.024 0.545-0.337 0.889-0.841 0.889-0.544 0-0.873-0.32-0.968-0.889zm-0.056 3.074-0.897-1.177h-0.44l0.536 1.177h0.801"/>
   </g>
  </g>
 </g>
</svg>